<svg xmlns="http://www.w3.org/2000/svg" xmlns:xlink="http://www.w3.org/1999/xlink" width="559" zoomAndPan="magnify" viewBox="0 0 419.25 297.749991" height="397" preserveAspectRatio="xMidYMid meet" version="1.0"><defs><filter x="0%" y="0%" width="100%" height="100%" id="e9055ff245"><feColorMatrix values="0 0 0 0 1 0 0 0 0 1 0 0 0 0 1 0 0 0 1 0" color-interpolation-filters="sRGB"/></filter><g/><clipPath id="44cad7855c"><path d="M 12 76 L 418.5 76 L 418.5 247 L 12 247 Z M 12 76 " clip-rule="nonzero"/></clipPath><clipPath id="e3dc84c217"><path d="M 236 0.324219 L 406.5 0.324219 L 406.5 170.179688 L 236 170.179688 Z M 236 0.324219 " clip-rule="nonzero"/></clipPath><mask id="3d3c97db59"><g filter="url(#e9055ff245)"><rect x="-104.235" width="603.72" fill="#000000" y="-141.504998" height="428.759987" fill-opacity="0.23"/></g></mask><clipPath id="a025835acc"><path d="M 1 0.335938 L 170.5 0.335938 L 170.5 170.167969 L 1 170.167969 Z M 1 0.335938 " clip-rule="nonzero"/></clipPath><clipPath id="acc1615580"><rect x="0" width="171" y="0" height="171"/></clipPath><clipPath id="4ac57ae271"><path d="M 0.21875 23 L 372 23 L 372 128 L 0.21875 128 Z M 0.21875 23 " clip-rule="nonzero"/></clipPath><clipPath id="4583a9aee8"><rect x="0" width="372" y="0" height="105"/></clipPath><clipPath id="2f929a3077"><rect x="0" width="407" y="0" height="171"/></clipPath></defs><g clip-path="url(#44cad7855c)"><g transform="matrix(1, 0, 0, 1, 12, 76)"><g clip-path="url(#2f929a3077)"><g clip-path="url(#e3dc84c217)"><g mask="url(#3d3c97db59)"><g transform="matrix(1, 0, 0, 1, 236, 0.000000000000028422)"><g clip-path="url(#acc1615580)"><path fill="#db2b29" d="M 164.683594 86.378906 C 164.683594 87.667969 164.652344 88.957031 164.589844 90.246094 C 164.523438 91.535156 164.429688 92.820312 164.304688 94.105469 C 164.175781 95.386719 164.019531 96.667969 163.832031 97.941406 C 163.640625 99.21875 163.421875 100.488281 163.167969 101.753906 C 162.917969 103.019531 162.636719 104.277344 162.320312 105.527344 C 162.007812 106.78125 161.664062 108.023438 161.289062 109.257812 C 160.914062 110.492188 160.511719 111.714844 160.078125 112.929688 C 159.640625 114.144531 159.179688 115.347656 158.683594 116.539062 C 158.191406 117.730469 157.667969 118.910156 157.117188 120.074219 C 156.566406 121.242188 155.984375 122.394531 155.378906 123.53125 C 154.769531 124.667969 154.132812 125.789062 153.472656 126.894531 C 152.808594 128.003906 152.117188 129.09375 151.402344 130.164062 C 150.683594 131.238281 149.941406 132.289062 149.175781 133.328125 C 148.40625 134.363281 147.613281 135.378906 146.792969 136.375 C 145.976562 137.375 145.132812 138.351562 144.269531 139.304688 C 143.402344 140.261719 142.511719 141.195312 141.601562 142.105469 C 140.6875 143.019531 139.753906 143.90625 138.800781 144.773438 C 137.84375 145.640625 136.867188 146.484375 135.871094 147.300781 C 134.871094 148.117188 133.855469 148.914062 132.820312 149.679688 C 131.785156 150.449219 130.730469 151.191406 129.65625 151.90625 C 128.585938 152.625 127.496094 153.316406 126.390625 153.976562 C 125.285156 154.640625 124.160156 155.277344 123.023438 155.882812 C 121.886719 156.492188 120.734375 157.070312 119.570312 157.625 C 118.402344 158.175781 117.222656 158.699219 116.03125 159.191406 C 114.839844 159.683594 113.636719 160.148438 112.421875 160.582031 C 111.207031 161.019531 109.984375 161.421875 108.75 161.796875 C 107.515625 162.171875 106.273438 162.515625 105.023438 162.828125 C 103.769531 163.140625 102.511719 163.425781 101.25 163.675781 C 99.984375 163.925781 98.710938 164.148438 97.4375 164.335938 C 96.160156 164.527344 94.882812 164.683594 93.597656 164.8125 C 92.3125 164.9375 91.027344 165.03125 89.738281 165.09375 C 88.453125 165.160156 87.164062 165.191406 85.871094 165.191406 C 84.582031 165.191406 83.292969 165.160156 82.003906 165.09375 C 80.71875 165.03125 79.433594 164.9375 78.148438 164.8125 C 76.863281 164.683594 75.585938 164.527344 74.308594 164.335938 C 73.03125 164.148438 71.761719 163.925781 70.496094 163.675781 C 69.234375 163.425781 67.972656 163.140625 66.722656 162.828125 C 65.472656 162.515625 64.230469 162.171875 62.996094 161.796875 C 61.761719 161.421875 60.535156 161.019531 59.324219 160.582031 C 58.109375 160.148438 56.90625 159.683594 55.714844 159.191406 C 54.523438 158.699219 53.34375 158.175781 52.175781 157.625 C 51.011719 157.070312 49.859375 156.492188 48.722656 155.882812 C 47.585938 155.277344 46.460938 154.640625 45.355469 153.976562 C 44.25 153.3125 43.160156 152.625 42.089844 151.90625 C 41.015625 151.191406 39.960938 150.449219 38.925781 149.679688 C 37.890625 148.914062 36.871094 148.117188 35.875 147.300781 C 34.878906 146.484375 33.902344 145.640625 32.945312 144.773438 C 31.992188 143.90625 31.058594 143.019531 30.144531 142.105469 C 29.234375 141.195312 28.34375 140.261719 27.476562 139.304688 C 26.613281 138.351562 25.769531 137.375 24.953125 136.375 C 24.132812 135.378906 23.339844 134.363281 22.570312 133.328125 C 21.804688 132.289062 21.0625 131.238281 20.34375 130.164062 C 19.628906 129.09375 18.9375 128.003906 18.273438 126.894531 C 17.613281 125.789062 16.976562 124.667969 16.367188 123.53125 C 15.761719 122.394531 15.179688 121.242188 14.628906 120.074219 C 14.078125 118.910156 13.554688 117.730469 13.0625 116.539062 C 12.566406 115.347656 12.105469 114.144531 11.667969 112.929688 C 11.234375 111.714844 10.832031 110.492188 10.457031 109.257812 C 10.082031 108.023438 9.738281 106.78125 9.425781 105.527344 C 9.109375 104.277344 8.828125 103.019531 8.578125 101.753906 C 8.324219 100.488281 8.105469 99.21875 7.914062 97.941406 C 7.726562 96.667969 7.566406 95.386719 7.441406 94.105469 C 7.316406 92.820312 7.21875 91.535156 7.15625 90.246094 C 7.09375 88.957031 7.0625 87.667969 7.0625 86.378906 C 7.0625 85.089844 7.09375 83.800781 7.15625 82.511719 C 7.21875 81.222656 7.316406 79.9375 7.441406 78.65625 C 7.566406 77.371094 7.726562 76.089844 7.914062 74.816406 C 8.105469 73.539062 8.324219 72.269531 8.578125 71.003906 C 8.828125 69.738281 9.109375 68.480469 9.425781 67.230469 C 9.738281 65.980469 10.082031 64.734375 10.457031 63.5 C 10.832031 62.269531 11.234375 61.042969 11.667969 59.828125 C 12.105469 58.613281 12.566406 57.410156 13.0625 56.21875 C 13.554688 55.027344 14.078125 53.847656 14.628906 52.683594 C 15.179688 51.515625 15.761719 50.367188 16.367188 49.226562 C 16.976562 48.089844 17.613281 46.96875 18.273438 45.863281 C 18.9375 44.757812 19.628906 43.667969 20.34375 42.59375 C 21.0625 41.523438 21.804688 40.46875 22.570312 39.433594 C 23.339844 38.394531 24.132812 37.378906 24.953125 36.382812 C 25.769531 35.386719 26.613281 34.410156 27.476562 33.453125 C 28.34375 32.496094 29.234375 31.5625 30.144531 30.652344 C 31.058594 29.738281 31.992188 28.851562 32.945312 27.984375 C 33.902344 27.117188 34.878906 26.277344 35.875 25.457031 C 36.871094 24.640625 37.890625 23.847656 38.925781 23.078125 C 39.960938 22.308594 41.015625 21.566406 42.089844 20.851562 C 43.160156 20.132812 44.25 19.445312 45.355469 18.78125 C 46.460938 18.117188 47.585938 17.484375 48.722656 16.875 C 49.859375 16.265625 51.011719 15.6875 52.175781 15.136719 C 53.34375 14.585938 54.523438 14.0625 55.714844 13.566406 C 56.90625 13.074219 58.109375 12.609375 59.324219 12.175781 C 60.535156 11.742188 61.761719 11.335938 62.996094 10.960938 C 64.230469 10.589844 65.472656 10.242188 66.722656 9.929688 C 67.972656 9.617188 69.234375 9.335938 70.496094 9.082031 C 71.761719 8.832031 73.03125 8.609375 74.308594 8.421875 C 75.585938 8.234375 76.863281 8.074219 78.148438 7.949219 C 79.433594 7.820312 80.71875 7.726562 82.003906 7.664062 C 83.292969 7.601562 84.582031 7.570312 85.871094 7.570312 C 87.164062 7.570312 88.453125 7.601562 89.738281 7.664062 C 91.027344 7.726562 92.3125 7.820312 93.597656 7.949219 C 94.882812 8.074219 96.160156 8.234375 97.4375 8.421875 C 98.710938 8.609375 99.984375 8.832031 101.25 9.082031 C 102.511719 9.335938 103.769531 9.617188 105.023438 9.929688 C 106.273438 10.242188 107.515625 10.589844 108.75 10.960938 C 109.984375 11.335938 111.207031 11.742188 112.421875 12.175781 C 113.636719 12.609375 114.839844 13.074219 116.03125 13.566406 C 117.222656 14.0625 118.402344 14.585938 119.570312 15.136719 C 120.734375 15.6875 121.886719 16.265625 123.023438 16.875 C 124.160156 17.484375 125.285156 18.117188 126.390625 18.78125 C 127.496094 19.445312 128.585938 20.132812 129.65625 20.851562 C 130.730469 21.566406 131.785156 22.308594 132.820312 23.078125 C 133.855469 23.847656 134.871094 24.640625 135.871094 25.457031 C 136.867188 26.277344 137.84375 27.117188 138.800781 27.984375 C 139.753906 28.851562 140.6875 29.738281 141.601562 30.652344 C 142.511719 31.5625 143.402344 32.496094 144.269531 33.453125 C 145.132812 34.410156 145.976562 35.386719 146.792969 36.382812 C 147.613281 37.378906 148.40625 38.394531 149.175781 39.433594 C 149.941406 40.46875 150.683594 41.523438 151.402344 42.59375 C 152.117188 43.667969 152.808594 44.757812 153.472656 45.863281 C 154.132812 46.96875 154.769531 48.089844 155.378906 49.226562 C 155.984375 50.367188 156.566406 51.515625 157.117188 52.683594 C 157.667969 53.847656 158.191406 55.027344 158.683594 56.21875 C 159.179688 57.410156 159.640625 58.613281 160.078125 59.828125 C 160.511719 61.042969 160.914062 62.269531 161.289062 63.5 C 161.664062 64.734375 162.007812 65.980469 162.320312 67.230469 C 162.636719 68.480469 162.917969 69.738281 163.167969 71.003906 C 163.421875 72.269531 163.640625 73.539062 163.832031 74.816406 C 164.019531 76.089844 164.175781 77.371094 164.304688 78.65625 C 164.429688 79.9375 164.523438 81.222656 164.589844 82.511719 C 164.652344 83.800781 164.683594 85.089844 164.683594 86.378906 Z M 164.683594 86.378906 " fill-opacity="1" fill-rule="nonzero"/><path fill="#db2b29" d="M 167.894531 81.371094 L 167.789062 80.074219 C 167.746094 80.199219 167.769531 80.554688 167.894531 81.371094 Z M 167.894531 81.371094 " fill-opacity="1" fill-rule="nonzero"/><path fill="#db2b29" d="M 167.3125 82.566406 C 167.3125 82.59375 167.3125 82.644531 167.3125 82.671875 C 167.34375 82.65625 167.335938 82.621094 167.3125 82.566406 Z M 167.3125 82.566406 " fill-opacity="1" fill-rule="nonzero"/><path fill="#db2b29" d="M 113.210938 152.53125 C 113.394531 152.429688 113.566406 152.328125 113.699219 152.234375 C 113.839844 152.132812 113.949219 152.042969 114.015625 151.953125 C 113.75 152.09375 113.558594 152.207031 113.429688 152.296875 C 113.300781 152.390625 113.230469 152.464844 113.203125 152.527344 Z M 113.210938 152.53125 " fill-opacity="1" fill-rule="nonzero"/><path fill="#db2b29" d="M 42.476562 158.695312 C 42.542969 158.648438 42.589844 158.617188 42.617188 158.566406 C 42.492188 158.550781 42.429688 158.578125 42.476562 158.695312 Z M 42.476562 158.695312 " fill-opacity="1" fill-rule="nonzero"/><path fill="#db2b29" d="M 165.308594 66.457031 C 165.34375 66.652344 165.375 66.855469 165.40625 67.042969 C 165.585938 67.121094 165.4375 66.574219 165.308594 66.457031 Z M 165.308594 66.457031 " fill-opacity="1" fill-rule="nonzero"/><path fill="#db2b29" d="M 128.609375 144.65625 C 128.628906 144.585938 128.636719 144.511719 128.621094 144.4375 C 128.597656 144.539062 128.605469 144.601562 128.609375 144.65625 Z M 128.609375 144.65625 " fill-opacity="1" fill-rule="nonzero"/><path fill="#db2b29" d="M 143.976562 24.488281 C 143.824219 24.390625 143.667969 24.269531 143.515625 24.152344 C 143.660156 24.292969 143.820312 24.417969 143.976562 24.488281 Z M 143.976562 24.488281 " fill-opacity="1" fill-rule="nonzero"/><path fill="#db2b29" d="M 38.503906 139.5 C 38.285156 139.398438 38.140625 139.363281 38.042969 139.367188 C 38.269531 139.515625 38.453125 139.59375 38.503906 139.5 Z M 38.503906 139.5 " fill-opacity="1" fill-rule="nonzero"/><g clip-path="url(#a025835acc)"><path fill="#db2b29" d="M 37.160156 140.6875 C 38.625 141.644531 38.652344 141.324219 38.410156 140.761719 C 38.171875 140.195312 37.671875 139.402344 38.042969 139.367188 C 37.65625 139.121094 37.136719 138.640625 36.746094 138.347656 C 36.363281 138.054688 36.132812 137.925781 36.3125 138.394531 C 36.183594 137.882812 35.851562 137.425781 35.417969 136.984375 C 34.992188 136.539062 34.457031 136.113281 33.921875 135.683594 C 32.855469 134.816406 31.761719 133.910156 31.46875 132.890625 C 31.328125 132.890625 31.785156 133.988281 30.714844 133.136719 C 30.371094 132.773438 30.136719 132.484375 29.988281 132.242188 C 29.84375 132 29.761719 131.808594 29.71875 131.640625 C 29.628906 131.300781 29.667969 131.058594 29.5 130.671875 C 29.195312 130.53125 28.53125 129.894531 27.996094 129.300781 C 27.464844 128.699219 27.042969 128.152344 27.195312 128.226562 C 26.699219 127.757812 26.683594 128.203125 26.613281 128.609375 C 26.550781 129.015625 26.421875 129.394531 25.679688 128.75 C 25.015625 128.429688 24.542969 127.820312 24.148438 127.132812 C 23.945312 126.789062 23.753906 126.433594 23.550781 126.089844 C 23.351562 125.742188 23.144531 125.40625 22.902344 125.113281 C 22.371094 123.292969 24.160156 126.480469 24.800781 126.960938 L 24.023438 125.929688 L 23.269531 124.878906 C 23.015625 124.53125 22.773438 124.175781 22.53125 123.820312 C 22.289062 123.460938 22.035156 123.113281 21.808594 122.746094 C 21.601562 121.992188 21.84375 122.054688 22.214844 122.46875 C 22.394531 122.679688 22.625 122.976562 22.847656 123.296875 C 23.070312 123.625 23.285156 123.984375 23.460938 124.316406 C 23.296875 123.820312 23.070312 123.316406 22.8125 122.839844 C 22.554688 122.367188 22.269531 121.90625 21.972656 121.507812 C 21.675781 121.105469 21.386719 120.75 21.109375 120.488281 C 20.835938 120.222656 20.582031 120.035156 20.378906 119.96875 C 20.148438 119.359375 19.929688 118.921875 19.726562 118.480469 C 19.523438 118.042969 19.351562 117.597656 19.207031 117 C 19.613281 117.472656 20.046875 117.582031 20.496094 117.773438 C 20.953125 117.957031 21.425781 118.222656 21.917969 119.003906 C 22.597656 120.367188 22.292969 120.214844 21.945312 120.019531 C 21.601562 119.824219 21.21875 119.574219 21.757812 120.773438 L 22.410156 120.671875 C 22.523438 121.246094 22.796875 121.667969 23.109375 122.082031 C 23.425781 122.488281 23.816406 122.871094 24.128906 123.371094 C 24.332031 124.023438 23.867188 123.359375 23.554688 123.023438 C 23.84375 123.484375 24.089844 123.933594 24.34375 124.351562 C 24.597656 124.773438 24.824219 125.183594 25.082031 125.5625 C 25.335938 125.941406 25.601562 126.289062 25.886719 126.605469 C 26.179688 126.917969 26.511719 127.191406 26.890625 127.425781 C 26.289062 126.082031 25.273438 124.585938 24.40625 123.222656 C 24.191406 122.882812 23.988281 122.546875 23.804688 122.234375 C 23.613281 121.917969 23.453125 121.609375 23.320312 121.328125 C 23.179688 121.039062 23.066406 120.78125 22.992188 120.542969 C 22.917969 120.308594 22.878906 120.09375 22.886719 119.90625 C 22.597656 119.519531 22.304688 119.128906 22.027344 118.734375 L 21.191406 117.539062 L 20.378906 116.324219 L 20.175781 116.019531 L 19.980469 115.710938 L 19.589844 115.089844 C 19.453125 115.148438 19.484375 115.6875 19.421875 116.046875 C 19.351562 116.410156 19.191406 116.589844 18.660156 115.914062 C 18.863281 115.449219 18.851562 114.796875 18.738281 113.980469 C 18.683594 113.574219 18.574219 113.136719 18.457031 112.65625 C 18.34375 112.179688 18.191406 111.671875 18.03125 111.136719 C 17.792969 111.664062 17.324219 110.882812 16.886719 110.117188 C 16.660156 109.734375 16.46875 109.355469 16.300781 109.152344 C 16.136719 108.949219 16 108.921875 15.941406 109.242188 C 16.121094 109.464844 16.222656 109.675781 16.277344 109.867188 C 16.335938 110.058594 16.351562 110.242188 16.335938 110.394531 C 16.3125 110.703125 16.191406 110.921875 16.1875 111.007812 C 15.992188 110.488281 15.84375 110.230469 15.726562 110.105469 C 15.613281 109.988281 15.523438 110.007812 15.445312 110.058594 C 15.285156 110.167969 15.167969 110.394531 14.953125 109.8125 C 14.820312 109.316406 14.722656 108.949219 14.660156 108.675781 C 14.597656 108.398438 14.578125 108.210938 14.570312 108.089844 C 14.558594 107.839844 14.632812 107.839844 14.707031 107.847656 C 14.78125 107.847656 14.859375 107.847656 14.863281 107.609375 C 14.863281 107.492188 14.851562 107.304688 14.808594 107.035156 C 14.785156 106.898438 14.757812 106.742188 14.722656 106.558594 C 14.6875 106.371094 14.65625 106.15625 14.605469 105.914062 C 14.746094 106.09375 14.929688 106.34375 15.15625 106.648438 C 15.382812 106.945312 15.640625 107.300781 15.90625 107.695312 C 16.164062 108.089844 16.464844 108.511719 16.738281 108.960938 C 16.878906 109.1875 17.015625 109.417969 17.152344 109.65625 C 17.292969 109.886719 17.425781 110.128906 17.554688 110.363281 C 17.628906 110.296875 17.617188 110.140625 17.554688 109.925781 C 17.527344 109.816406 17.488281 109.695312 17.445312 109.558594 C 17.398438 109.425781 17.355469 109.28125 17.304688 109.132812 C 17.105469 108.527344 16.871094 107.839844 16.941406 107.34375 C 16.917969 108.015625 16.675781 107.863281 16.453125 107.667969 C 16.226562 107.46875 16.023438 107.238281 16.09375 107.773438 C 15.464844 106.308594 14.746094 104.726562 14.058594 103.019531 C 13.394531 101.3125 12.78125 99.476562 12.398438 97.554688 C 12.707031 97.664062 12.992188 98.105469 13.253906 98.699219 C 13.507812 99.285156 13.769531 100.003906 14.023438 100.671875 C 14.085938 100.832031 14.148438 100.996094 14.214844 101.15625 C 14.285156 101.308594 14.351562 101.453125 14.417969 101.59375 C 14.554688 101.871094 14.683594 102.101562 14.820312 102.269531 C 15.082031 102.609375 15.355469 102.6875 15.636719 102.320312 C 15.0625 100.546875 14.507812 100.660156 14.3125 99.167969 C 14.558594 98.472656 14.390625 97.390625 14.160156 96.152344 C 13.917969 94.914062 13.613281 93.511719 13.496094 92.238281 L 13.242188 93.398438 C 12.859375 92.453125 12.941406 90.621094 12.976562 89.488281 L 13.144531 89.777344 L 12.882812 88.667969 C 12.902344 88.492188 12.941406 88.445312 12.984375 88.453125 C 12.875 88.148438 12.832031 87.71875 12.800781 87.214844 C 12.785156 86.960938 12.78125 86.6875 12.773438 86.402344 C 12.773438 86.113281 12.785156 85.816406 12.789062 85.507812 C 12.796875 85.195312 12.808594 84.882812 12.8125 84.558594 C 12.824219 84.238281 12.839844 83.914062 12.851562 83.589844 C 12.863281 83.269531 12.871094 82.949219 12.871094 82.632812 C 12.882812 82.316406 12.882812 82.015625 12.871094 81.714844 C 12.722656 81.703125 12.644531 81.851562 12.597656 82.085938 C 12.554688 82.324219 12.542969 82.648438 12.558594 83.015625 C 12.59375 83.75 12.671875 84.621094 12.644531 85.183594 C 12.578125 85.335938 12.476562 85.960938 12.339844 86.417969 C 12.214844 86.875 12.058594 87.164062 11.855469 86.628906 C 11.855469 85.882812 11.828125 85.195312 11.765625 84.53125 C 11.726562 83.867188 11.664062 83.21875 11.601562 82.554688 C 11.5625 81.894531 11.511719 81.21875 11.507812 80.5 C 11.507812 80.136719 11.519531 79.765625 11.535156 79.378906 C 11.546875 79.1875 11.550781 78.988281 11.570312 78.785156 C 11.585938 78.582031 11.609375 78.378906 11.636719 78.167969 L 11.488281 78.695312 L 11.355469 79.226562 C 11.050781 78.109375 11.429688 76.664062 11.636719 75.050781 C 12.070312 73.625 12.183594 74.195312 12.261719 74.898438 C 12.351562 75.605469 12.425781 76.441406 12.710938 75.59375 C 12.890625 76.195312 12.75 76.960938 12.695312 77.636719 C 12.632812 78.308594 12.597656 78.882812 12.953125 79.066406 C 13.28125 78.492188 13.625 77.925781 13.953125 77.367188 C 13.871094 76.976562 13.890625 76.589844 13.933594 76.210938 C 13.992188 75.835938 14.074219 75.460938 14.1875 75.109375 C 14.300781 74.753906 14.425781 74.421875 14.519531 74.105469 C 14.617188 73.789062 14.6875 73.503906 14.71875 73.238281 C 14.527344 73.582031 14.351562 73.9375 14.171875 74.285156 C 13.882812 74.121094 13.894531 73.800781 14.003906 73.457031 C 14.121094 73.113281 14.328125 72.753906 14.425781 72.5 L 13.382812 73.085938 C 13.265625 73.484375 13.230469 73.875 13.214844 74.234375 C 13.203125 74.59375 13.214844 74.9375 13.214844 75.265625 C 13.234375 75.917969 13.226562 76.511719 12.875 77.074219 C 12.902344 76.332031 12.875 75.8125 12.824219 75.390625 C 12.769531 74.96875 12.710938 74.652344 12.648438 74.308594 C 12.59375 73.96875 12.542969 73.609375 12.554688 73.113281 C 12.578125 72.617188 12.632812 71.988281 12.8125 71.097656 C 13.003906 71.050781 13 71.234375 12.972656 71.46875 C 12.949219 71.710938 12.898438 72.015625 13 72.222656 C 13.117188 71.9375 13.175781 71.625 13.207031 71.304688 C 13.246094 70.984375 13.257812 70.640625 13.28125 70.269531 C 13.308594 69.53125 13.410156 68.703125 13.789062 67.769531 C 13.761719 68.355469 13.726562 69.109375 13.800781 69.558594 C 13.832031 69.785156 13.90625 69.929688 14.011719 69.941406 C 14.121094 69.953125 14.261719 69.824219 14.46875 69.503906 L 14.050781 68.308594 C 14.210938 67.875 14.339844 67.769531 14.441406 67.730469 C 14.539062 67.683594 14.609375 67.699219 14.671875 67.527344 C 14.902344 66.917969 14.710938 66.941406 14.554688 66.878906 C 14.476562 66.84375 14.402344 66.792969 14.390625 66.625 C 14.386719 66.457031 14.429688 66.175781 14.628906 65.691406 C 14.847656 65.429688 15.191406 64.820312 15.253906 65.15625 C 15.335938 64.871094 15.40625 64.640625 15.457031 64.457031 C 15.511719 64.269531 15.550781 64.117188 15.578125 63.992188 C 15.636719 63.746094 15.636719 63.605469 15.628906 63.464844 C 15.617188 63.183594 15.539062 62.902344 15.757812 61.796875 C 15.421875 62.730469 15.027344 63.144531 14.761719 63.070312 C 14.503906 62.996094 14.363281 62.421875 14.667969 61.414062 C 14.800781 61.070312 14.921875 60.738281 15.03125 60.410156 C 15.152344 60.089844 15.257812 59.78125 15.359375 59.476562 C 15.460938 59.171875 15.550781 58.878906 15.652344 58.597656 C 15.753906 58.316406 15.851562 58.046875 15.949219 57.78125 C 16.050781 57.515625 16.160156 57.261719 16.265625 57.015625 C 16.382812 56.773438 16.507812 56.535156 16.644531 56.3125 C 16.917969 55.859375 17.230469 55.441406 17.648438 55.078125 L 17.796875 53.691406 C 17.910156 54.214844 18.152344 53.816406 18.457031 53.195312 C 18.605469 52.886719 18.761719 52.515625 18.917969 52.175781 C 19.082031 51.839844 19.234375 51.535156 19.371094 51.335938 C 19.757812 51.371094 19.230469 52.332031 18.777344 53.382812 C 18.542969 53.898438 18.332031 54.441406 18.25 54.878906 C 18.160156 55.320312 18.191406 55.65625 18.457031 55.777344 C 19.371094 54.089844 19.335938 55.003906 19.359375 55.683594 C 19.742188 54.734375 19.636719 54.472656 19.433594 54.324219 C 19.230469 54.171875 18.917969 54.128906 18.910156 53.617188 C 18.976562 53.652344 19.109375 53.472656 19.28125 53.203125 C 19.449219 52.9375 19.640625 52.582031 19.84375 52.277344 C 20.242188 51.664062 20.605469 51.203125 20.59375 51.890625 C 21.015625 51.121094 21.121094 50.59375 21.199219 50.113281 C 21.242188 49.871094 21.28125 49.648438 21.351562 49.414062 C 21.433594 49.183594 21.550781 48.949219 21.742188 48.683594 C 21.886719 49 22.089844 49.375 22.46875 49.457031 C 22.402344 49.332031 22.644531 48.949219 22.925781 48.566406 C 23.199219 48.183594 23.539062 47.816406 23.628906 47.679688 C 23.351562 47.867188 23.4375 46.847656 22.804688 48.246094 C 22.664062 47.941406 23.136719 47.175781 23.589844 46.464844 C 24.058594 45.765625 24.5 45.125 24.28125 45.027344 C 24.59375 45.140625 25.085938 44.488281 25.644531 43.652344 C 25.933594 43.246094 26.242188 42.792969 26.546875 42.375 C 26.855469 41.953125 27.175781 41.574219 27.46875 41.300781 C 27.144531 41.097656 26.902344 41.167969 26.6875 41.382812 C 26.480469 41.597656 26.304688 41.945312 26.148438 42.324219 C 25.984375 42.695312 25.824219 43.085938 25.617188 43.359375 C 25.410156 43.636719 25.179688 43.804688 24.839844 43.738281 C 25.03125 43.21875 25.414062 42.601562 25.871094 41.902344 C 26.101562 41.550781 26.367188 41.199219 26.640625 40.820312 C 26.78125 40.632812 26.925781 40.441406 27.066406 40.246094 C 27.210938 40.054688 27.363281 39.863281 27.515625 39.664062 C 28.726562 38.097656 30.089844 36.449219 31.054688 34.957031 C 31.617188 34.449219 31.941406 34.242188 32.101562 34.179688 C 32.257812 34.121094 32.265625 34.234375 32.226562 34.402344 C 32.140625 34.742188 31.886719 35.316406 32.296875 35.289062 C 31.875 35.835938 31.507812 36.25 31.171875 36.605469 C 30.84375 36.96875 30.550781 37.265625 30.257812 37.554688 C 30.117188 37.699219 29.972656 37.839844 29.832031 37.988281 C 29.691406 38.140625 29.554688 38.289062 29.40625 38.460938 C 29.265625 38.628906 29.121094 38.808594 28.96875 39.011719 C 28.894531 39.113281 28.816406 39.214844 28.738281 39.328125 C 28.660156 39.441406 28.585938 39.558594 28.5 39.6875 C 28.726562 39.453125 28.972656 39.199219 29.226562 38.933594 C 29.480469 38.664062 29.742188 38.375 30.003906 38.078125 C 30.277344 37.785156 30.546875 37.480469 30.816406 37.167969 L 31.214844 36.703125 C 31.351562 36.550781 31.488281 36.390625 31.621094 36.242188 C 31.886719 35.929688 32.144531 35.621094 32.394531 35.316406 C 32.648438 35.019531 32.882812 34.726562 33.101562 34.449219 C 33.324219 34.167969 33.527344 33.898438 33.710938 33.65625 C 33.898438 33.40625 34.054688 33.175781 34.183594 32.96875 C 34.308594 32.839844 34.433594 32.726562 34.550781 32.617188 C 34.667969 32.511719 34.792969 32.421875 34.910156 32.335938 C 35.148438 32.167969 35.375 32.03125 35.59375 31.914062 C 36.03125 31.679688 36.460938 31.542969 36.894531 31.386719 C 37.761719 31.0625 38.644531 30.6875 39.847656 29.46875 C 39.1875 29.378906 39.164062 29.234375 38.230469 29.789062 C 38.375 29.609375 38.542969 29.4375 38.726562 29.273438 C 38.910156 29.109375 39.109375 28.957031 39.316406 28.8125 C 39.726562 28.511719 40.148438 28.214844 40.542969 27.921875 C 40.691406 27.609375 40.332031 27.773438 40.042969 27.875 C 39.902344 27.925781 39.785156 27.972656 39.75 27.933594 C 39.722656 27.890625 39.785156 27.769531 40.015625 27.503906 C 40.5 27.246094 41.457031 26.597656 41.472656 27.003906 L 41.320312 27.175781 C 42.511719 26.015625 43.167969 25.910156 43.742188 25.800781 C 44.03125 25.746094 44.296875 25.683594 44.601562 25.492188 C 44.90625 25.300781 45.257812 24.984375 45.714844 24.398438 C 45.394531 24.320312 45.050781 24.914062 44.390625 25.167969 C 43.738281 25.15625 44.886719 23.722656 45.933594 22.882812 C 45.925781 23.085938 46.175781 22.953125 46.539062 22.710938 C 46.71875 22.59375 46.925781 22.441406 47.144531 22.308594 C 47.367188 22.175781 47.589844 22.046875 47.804688 21.949219 C 48.214844 22.035156 47.738281 22.359375 47.136719 22.738281 C 46.542969 23.132812 45.816406 23.570312 45.726562 23.855469 L 46.824219 23.21875 L 47.371094 22.902344 L 47.929688 22.597656 L 47.421875 22.792969 L 48.476562 21.859375 C 48.824219 21.542969 49.191406 21.25 49.546875 20.941406 C 47.945312 22.039062 48.386719 20.792969 49.105469 20.316406 C 49.328125 20.210938 49.546875 20.101562 49.761719 20 C 49.972656 19.898438 50.195312 19.804688 50.402344 19.714844 C 50.820312 19.53125 51.207031 19.375 51.546875 19.269531 C 52.226562 19.066406 52.6875 19.039062 52.730469 19.371094 C 52.648438 18.695312 54.835938 17.675781 56.363281 16.886719 C 54.558594 17.433594 55.929688 16.484375 56.363281 16.089844 L 57.785156 15.84375 C 58.261719 15.757812 58.738281 15.695312 59.210938 15.628906 C 57.859375 16.238281 58.058594 16.3125 58.53125 16.316406 C 59.003906 16.316406 59.742188 16.253906 59.492188 16.574219 C 59.210938 17.03125 58.632812 17.324219 57.945312 17.601562 C 57.601562 17.734375 57.230469 17.855469 56.851562 17.972656 C 56.472656 18.101562 56.097656 18.226562 55.738281 18.363281 C 56.136719 18.34375 56.496094 18.292969 56.816406 18.21875 C 57.140625 18.148438 57.433594 18.0625 57.695312 17.957031 C 58.230469 17.742188 58.664062 17.453125 59.09375 17.171875 C 59.523438 16.890625 59.933594 16.582031 60.40625 16.332031 C 60.878906 16.089844 61.414062 15.886719 62.078125 15.808594 C 62.167969 16.082031 62.0625 16.472656 60.964844 16.796875 C 61.085938 16.808594 61.28125 16.726562 61.523438 16.597656 C 61.765625 16.472656 62.058594 16.292969 62.398438 16.125 C 62.738281 15.949219 63.121094 15.765625 63.527344 15.613281 C 63.933594 15.453125 64.371094 15.351562 64.816406 15.304688 C 64.320312 15.242188 63.183594 14.976562 64.816406 14.234375 C 65.222656 14.234375 65.628906 14.242188 66.035156 14.261719 L 67.246094 14.300781 C 68.570312 14.058594 68.75 13.816406 68.863281 13.535156 C 68.972656 13.246094 69.011719 12.925781 70.078125 12.519531 C 69.566406 12.46875 69.042969 12.40625 68.523438 12.363281 C 68.5625 12.023438 69.316406 11.867188 70.042969 11.699219 C 70.410156 11.609375 70.769531 11.539062 71.035156 11.4375 C 71.300781 11.335938 71.476562 11.214844 71.457031 11.039062 C 71.109375 11.101562 70.804688 11.191406 70.515625 11.285156 C 70.234375 11.386719 69.976562 11.507812 69.710938 11.617188 C 69.1875 11.84375 68.648438 12.035156 67.902344 12.125 C 67.554688 11.867188 67.988281 11.664062 68.613281 11.464844 C 69.246094 11.28125 70.050781 11.082031 70.4375 10.824219 C 71.214844 10.75 71.761719 10.699219 72.171875 10.671875 C 72.589844 10.65625 72.878906 10.65625 73.140625 10.667969 C 73.667969 10.6875 74.101562 10.75 75.277344 10.863281 C 75.332031 11.125 75.140625 11.359375 74.832031 11.597656 C 74.679688 11.714844 74.496094 11.832031 74.296875 11.949219 C 74.105469 12.070312 73.898438 12.199219 73.695312 12.324219 C 73.289062 12.578125 72.898438 12.828125 72.664062 13.105469 C 72.421875 13.386719 72.332031 13.679688 72.507812 13.996094 C 72.855469 13.898438 73.226562 13.820312 73.609375 13.730469 C 73.992188 13.640625 74.394531 13.546875 74.796875 13.460938 C 75.609375 13.296875 76.449219 13.121094 77.269531 13.011719 C 77.675781 12.953125 78.082031 12.886719 78.464844 12.851562 C 78.855469 12.8125 79.226562 12.785156 79.582031 12.761719 C 79.753906 12.75 79.929688 12.746094 80.09375 12.738281 C 80.257812 12.738281 80.421875 12.738281 80.570312 12.738281 C 80.875 12.75 81.152344 12.769531 81.394531 12.808594 C 82.035156 12.683594 82.503906 12.558594 82.835938 12.417969 C 83.167969 12.277344 83.367188 12.113281 83.472656 11.949219 C 83.683594 11.625 83.519531 11.269531 83.308594 10.976562 C 83.855469 10.890625 84.265625 10.886719 84.628906 10.910156 C 84.988281 10.929688 85.296875 10.988281 85.652344 11.0625 L 84.417969 11.417969 C 85.230469 11.320312 85.957031 11.21875 86.644531 11.15625 C 86.988281 11.125 87.328125 11.089844 87.652344 11.054688 C 87.984375 11.023438 88.304688 11.003906 88.636719 10.988281 C 88.964844 10.964844 89.296875 10.949219 89.628906 10.9375 C 89.96875 10.925781 90.304688 10.929688 90.667969 10.9375 C 91.019531 10.941406 91.394531 10.949219 91.777344 10.972656 C 92.164062 11 92.566406 11.027344 92.992188 11.074219 C 93.234375 11.074219 93.4375 11.0625 93.605469 11.039062 C 93.777344 11.023438 93.90625 10.992188 94.007812 10.960938 C 94.210938 10.890625 94.289062 10.789062 94.300781 10.667969 C 94.316406 10.425781 94.03125 10.113281 93.820312 9.84375 C 94.535156 9.890625 95.25 9.921875 95.96875 9.984375 L 95.65625 9.8125 C 95.9375 9.511719 96.546875 9.484375 97.269531 9.558594 C 97.628906 9.589844 98.011719 9.664062 98.394531 9.742188 C 98.777344 9.820312 99.160156 9.902344 99.515625 9.96875 C 99.472656 10.253906 98.59375 10.175781 98.644531 10.367188 C 99.859375 10.800781 101.730469 11.117188 102.804688 11.0625 C 102.777344 11.203125 102.511719 11.386719 102.078125 11.464844 C 101.863281 11.507812 101.605469 11.523438 101.3125 11.5 C 101.019531 11.476562 100.6875 11.421875 100.332031 11.304688 C 100.191406 11.207031 100.289062 11.117188 100.148438 11.015625 L 99.503906 10.988281 C 99.289062 10.980469 99.078125 10.980469 98.863281 10.976562 L 97.582031 10.960938 C 98.316406 10.992188 98.96875 11.074219 99.527344 11.203125 C 100.085938 11.335938 100.546875 11.511719 100.914062 11.691406 C 101.640625 12.0625 101.964844 12.515625 101.859375 12.839844 C 103.300781 12.972656 102.773438 12.671875 102.296875 12.402344 C 101.824219 12.132812 101.414062 11.878906 103.132812 12.121094 C 105.199219 13.292969 107.265625 13.792969 109.085938 14.351562 C 109.535156 14.496094 109.976562 14.625 110.386719 14.789062 C 110.796875 14.953125 111.183594 15.121094 111.542969 15.320312 C 112.253906 15.714844 112.835938 16.222656 113.238281 16.886719 C 113.757812 16.988281 114.300781 17.089844 114.882812 17.195312 C 115.460938 17.308594 116.066406 17.441406 116.703125 17.601562 C 117.339844 17.765625 117.996094 17.96875 118.691406 18.210938 C 119.035156 18.339844 119.382812 18.472656 119.738281 18.625 C 119.917969 18.699219 120.097656 18.777344 120.277344 18.863281 C 120.460938 18.949219 120.640625 19.039062 120.824219 19.132812 C 120.960938 18.875 121.472656 19.082031 121.957031 19.257812 C 122.441406 19.433594 122.898438 19.589844 122.933594 19.199219 C 122.78125 19.058594 122.628906 18.9375 122.46875 18.8125 C 122.3125 18.695312 122.148438 18.585938 121.984375 18.492188 C 121.652344 18.289062 121.316406 18.121094 120.972656 17.96875 C 120.277344 17.679688 119.574219 17.472656 118.894531 17.273438 C 118.550781 17.179688 118.210938 17.089844 117.886719 16.980469 C 117.558594 16.878906 117.242188 16.761719 116.933594 16.636719 C 116.628906 16.515625 116.335938 16.363281 116.058594 16.1875 C 115.917969 16.097656 115.789062 16 115.660156 15.894531 C 115.53125 15.792969 115.402344 15.679688 115.28125 15.554688 C 113.867188 15.269531 114.128906 15.898438 113.429688 15.957031 C 112.835938 15.757812 112.28125 15.539062 111.859375 15.320312 C 111.433594 15.109375 111.152344 14.902344 111.136719 14.707031 C 111.492188 14.785156 111.777344 14.824219 112.015625 14.839844 C 112.253906 14.863281 112.433594 14.859375 112.585938 14.835938 C 112.886719 14.789062 113.0625 14.683594 113.253906 14.585938 C 113.445312 14.496094 113.660156 14.425781 114.050781 14.453125 C 114.433594 14.484375 114.984375 14.644531 115.855469 14.988281 C 115.796875 14.828125 115.5625 14.648438 115.238281 14.457031 C 115.074219 14.363281 114.886719 14.261719 114.683594 14.164062 C 114.585938 14.113281 114.476562 14.0625 114.371094 14.011719 C 114.257812 13.96875 114.144531 13.917969 114.03125 13.867188 C 113.574219 13.675781 113.085938 13.484375 112.636719 13.304688 C 112.179688 13.132812 111.761719 12.972656 111.453125 12.824219 C 111.914062 12.707031 111.636719 12.273438 110.859375 11.769531 C 111.402344 11.703125 112.21875 11.769531 113.0625 11.839844 C 113.898438 11.929688 114.757812 12.035156 115.371094 12.0625 C 114.898438 12.160156 115.53125 12.585938 115.164062 12.605469 C 115.835938 12.734375 116.511719 12.847656 117.179688 12.988281 L 118.1875 13.203125 C 118.527344 13.273438 118.863281 13.34375 119.199219 13.425781 C 120.175781 14.277344 120.289062 14.800781 119.558594 14.800781 C 120.042969 15.070312 120.628906 15.347656 121.238281 15.613281 C 121.851562 15.871094 122.46875 16.140625 123.023438 16.402344 C 123.578125 16.648438 124.054688 16.90625 124.367188 17.144531 C 124.683594 17.382812 124.832031 17.59375 124.730469 17.785156 C 125.050781 17.945312 125.277344 18.050781 125.433594 18.121094 C 125.589844 18.1875 125.679688 18.203125 125.714844 18.191406 C 125.78125 18.164062 125.636719 18 125.40625 17.78125 C 124.941406 17.351562 124.136719 16.726562 124.09375 16.558594 L 124.328125 16.644531 C 123.882812 16.402344 123.429688 16.175781 122.976562 15.949219 C 122.519531 15.726562 122.070312 15.496094 121.613281 15.285156 C 121.652344 15.027344 121.855469 15.003906 122.160156 15.109375 C 122.457031 15.21875 122.851562 15.464844 123.265625 15.71875 C 123.472656 15.847656 123.679688 15.980469 123.890625 16.097656 C 124.097656 16.222656 124.300781 16.332031 124.492188 16.421875 C 124.875 16.597656 125.214844 16.671875 125.4375 16.519531 C 126.101562 15.835938 126.980469 16.519531 127.910156 17.476562 C 128.375 17.96875 128.851562 18.507812 129.324219 19.007812 C 129.796875 19.511719 130.28125 19.933594 130.761719 20.179688 C 130.300781 20.125 129.832031 20.089844 129.371094 20.046875 C 128.910156 20.007812 128.453125 19.957031 127.992188 19.933594 C 128.636719 20.226562 129.273438 20.542969 129.921875 20.851562 C 129.269531 20.726562 128.824219 20.851562 128.316406 20.929688 C 127.808594 21.007812 127.230469 21.066406 126.316406 20.804688 C 126.617188 20.996094 126.929688 21.207031 127.253906 21.425781 C 127.574219 21.644531 127.894531 21.886719 128.222656 22.125 C 128.878906 22.597656 129.535156 23.117188 130.171875 23.601562 C 130.484375 23.84375 130.789062 24.089844 131.089844 24.320312 C 131.386719 24.550781 131.675781 24.773438 131.945312 24.980469 C 132.480469 25.398438 132.96875 25.742188 133.371094 25.976562 C 133.644531 26.777344 133.625 27.300781 133.097656 27.453125 C 133.4375 27.59375 133.742188 27.746094 134.019531 27.910156 C 134.289062 28.078125 134.53125 28.257812 134.753906 28.449219 C 134.976562 28.636719 135.179688 28.832031 135.363281 29.035156 C 135.550781 29.238281 135.714844 29.453125 135.875 29.667969 C 136.523438 30.515625 137.035156 31.425781 137.898438 32.257812 C 138.984375 32.972656 138.640625 32.410156 138.25 31.761719 C 137.847656 31.121094 137.375 30.410156 138.292969 30.816406 C 138.46875 31.199219 138.84375 31.605469 139.269531 31.949219 C 139.476562 32.121094 139.695312 32.285156 139.894531 32.425781 C 140.089844 32.574219 140.277344 32.703125 140.421875 32.808594 C 140.242188 32.714844 140.011719 32.488281 139.730469 32.207031 C 139.453125 31.921875 139.136719 31.558594 138.804688 31.160156 C 138.136719 30.375 137.390625 29.453125 136.742188 28.742188 C 137.804688 29.707031 138.113281 29.132812 138.585938 29.203125 L 138.167969 28.769531 L 137.742188 28.34375 L 136.878906 27.488281 C 137.199219 27.234375 137.769531 27.722656 138.398438 28.320312 C 138.710938 28.625 139.03125 28.96875 139.339844 29.253906 C 139.65625 29.542969 139.960938 29.789062 140.226562 29.914062 C 139.21875 29.929688 139.480469 30.222656 138.480469 30.257812 C 138.914062 30.550781 139.363281 30.921875 139.824219 31.324219 C 140.054688 31.527344 140.289062 31.726562 140.511719 31.949219 C 140.738281 32.167969 140.957031 32.394531 141.171875 32.625 C 141.386719 32.855469 141.601562 33.082031 141.796875 33.3125 C 141.992188 33.546875 142.179688 33.777344 142.347656 34.003906 C 142.523438 34.234375 142.679688 34.453125 142.828125 34.675781 C 142.96875 34.894531 143.09375 35.109375 143.195312 35.304688 C 143.425781 35.789062 143.214844 35.683594 142.882812 35.421875 C 142.714844 35.292969 142.523438 35.125 142.332031 34.980469 C 142.140625 34.832031 141.960938 34.695312 141.824219 34.628906 C 141.808594 34.96875 142.207031 35.289062 142.578125 35.625 C 142.957031 35.964844 143.316406 36.300781 143.222656 36.644531 C 142.675781 36.707031 142.367188 35.738281 141.785156 35.304688 C 143.0625 36.820312 144.285156 38.382812 145.445312 39.988281 C 145.390625 40.03125 145.289062 39.992188 145.152344 39.902344 C 145.023438 39.8125 144.859375 39.664062 144.691406 39.492188 C 144.347656 39.140625 143.988281 38.667969 143.730469 38.273438 C 143.960938 38.667969 144.167969 39.035156 144.417969 39.355469 C 144.660156 39.683594 144.929688 39.976562 145.214844 40.269531 C 145.507812 40.554688 145.847656 40.824219 146.234375 41.089844 C 146.625 41.359375 147.058594 41.632812 147.570312 41.917969 C 147.820312 42.367188 148.050781 42.855469 148.257812 43.308594 C 148.472656 43.765625 148.65625 44.199219 148.777344 44.566406 C 149.03125 45.304688 149.074219 45.753906 148.707031 45.585938 C 149.367188 46.261719 149.253906 45.601562 149.492188 45.4375 C 150.15625 46.640625 150.742188 47.167969 151.265625 47.585938 C 151.789062 48.003906 152.273438 48.289062 152.679688 49.011719 C 152.628906 48.558594 152.585938 48.097656 152.515625 47.648438 C 152.628906 47.972656 152.726562 48.222656 152.816406 48.40625 C 152.90625 48.59375 152.984375 48.722656 153.0625 48.808594 C 153.214844 48.976562 153.351562 48.980469 153.484375 48.976562 C 153.621094 48.972656 153.75 48.953125 153.902344 49.082031 C 153.976562 49.144531 154.054688 49.246094 154.140625 49.40625 C 154.21875 49.5625 154.308594 49.777344 154.398438 50.070312 C 153.722656 49.984375 153.230469 50.429688 152.882812 51.0625 C 153.214844 51.105469 153.460938 51.511719 153.660156 52.023438 C 153.855469 52.542969 154.03125 53.15625 154.25 53.613281 C 154.480469 52.789062 155.648438 55.386719 155.453125 53.644531 C 156.167969 54.625 156.441406 55.472656 156.71875 56.214844 C 156.859375 56.585938 156.984375 56.945312 157.164062 57.289062 C 157.339844 57.632812 157.582031 57.964844 157.902344 58.316406 C 157.785156 57.765625 158.105469 58.191406 158.460938 58.636719 C 158.8125 59.078125 159.203125 59.53125 159.214844 59.007812 C 159.4375 59.550781 159.574219 60.078125 159.675781 60.546875 C 159.773438 61.015625 159.8125 61.417969 159.792969 61.753906 C 159.761719 62.410156 159.53125 62.738281 159.144531 62.53125 C 158.953125 61.753906 158.746094 60.46875 158.339844 60.703125 L 158.71875 61.683594 L 159.066406 62.675781 C 159.179688 63.007812 159.304688 63.335938 159.417969 63.667969 L 159.742188 64.671875 C 159.742188 64.941406 159.773438 65.222656 159.78125 65.503906 C 159.792969 65.785156 159.804688 66.0625 159.792969 66.316406 C 159.777344 66.820312 159.6875 67.234375 159.394531 67.390625 C 159.652344 67.667969 159.804688 68.054688 159.914062 68.488281 C 159.964844 68.707031 160.007812 68.933594 160.042969 69.171875 C 160.070312 69.40625 160.09375 69.644531 160.117188 69.878906 C 160.160156 70.355469 160.210938 70.816406 160.308594 71.210938 C 160.402344 71.605469 160.550781 71.9375 160.8125 72.144531 C 160.609375 71.824219 160.492188 71.507812 160.425781 71.203125 C 160.363281 70.898438 160.335938 70.613281 160.347656 70.34375 C 160.363281 69.808594 160.480469 69.355469 160.46875 69.082031 L 160.730469 69.6875 C 160.707031 69.597656 160.695312 69.492188 160.691406 69.351562 C 161.179688 69.859375 161.679688 70.375 162.164062 70.898438 C 162.207031 69.988281 162.003906 69.949219 161.738281 69.835938 C 161.601562 69.777344 161.449219 69.699219 161.304688 69.484375 C 161.15625 69.273438 161.011719 68.921875 160.863281 68.320312 C 160.992188 67.738281 161.21875 67.710938 161.5 67.976562 C 161.777344 68.242188 162.109375 68.792969 162.402344 69.355469 C 163.011719 70.472656 163.523438 71.625 163.625 70.433594 C 163.546875 68.523438 162.65625 69.050781 161.917969 67.65625 L 161.992188 68.050781 C 161.578125 66.957031 161.136719 65.882812 160.679688 64.8125 C 160.824219 64.6875 161.050781 64.851562 161.226562 65.054688 C 161.398438 65.253906 161.539062 65.492188 161.539062 65.492188 C 161.40625 64.984375 161.28125 64.527344 161.167969 64.113281 C 161.0625 63.695312 160.972656 63.3125 160.894531 62.957031 C 160.71875 62.253906 160.601562 61.640625 160.476562 61.015625 C 160.335938 60.394531 160.210938 59.757812 160.007812 59.007812 C 159.800781 58.265625 159.546875 57.398438 159.136719 56.328125 C 159.136719 56.695312 158.460938 57.910156 157.53125 56.125 C 156.707031 54.914062 157.25 54.496094 156.792969 53.375 C 157 53.675781 157.320312 53.90625 157.582031 54.203125 C 157.839844 54.496094 158.046875 54.851562 158.058594 55.375 L 158.722656 55.003906 C 158.863281 55.179688 158.996094 55.335938 159.113281 55.476562 C 159.230469 55.617188 159.34375 55.746094 159.445312 55.859375 C 159.652344 56.085938 159.839844 56.261719 160.007812 56.40625 C 160.339844 56.695312 160.609375 56.851562 160.863281 57.054688 C 161.371094 57.472656 161.894531 58.050781 162.800781 60.265625 C 163.101562 60.277344 163.589844 61.085938 164.074219 62.226562 C 164.304688 62.792969 164.546875 63.449219 164.75 64.113281 C 164.941406 64.78125 165.121094 65.476562 165.246094 66.117188 C 165.308594 65.667969 165.347656 65.210938 165.40625 64.761719 C 166.226562 65.949219 166.058594 66.132812 165.90625 66.398438 C 165.828125 66.535156 165.753906 66.691406 165.792969 67.019531 C 165.839844 67.34375 166 67.828125 166.378906 68.640625 C 166.210938 69.050781 166.046875 69.53125 165.878906 69.992188 C 165.699219 70.453125 165.511719 70.898438 165.308594 71.238281 C 164.902344 71.914062 164.441406 72.160156 163.855469 71.3125 C 164.058594 73.6875 164.695312 74.410156 164.976562 76.542969 C 164.644531 77.25 164.402344 77.109375 164.148438 76.84375 C 163.894531 76.578125 163.617188 76.183594 163.226562 76.359375 C 163.359375 77.113281 163.566406 77.964844 163.789062 78.476562 C 163.992188 78.996094 164.214844 79.175781 164.394531 78.578125 L 164.363281 80.058594 C 164.351562 80.550781 164.316406 81.046875 164.296875 81.535156 C 164.121094 81.625 164.0625 80.578125 164.046875 80.167969 C 164.003906 80.742188 164.101562 81.5625 164.273438 82.324219 C 164.417969 83.085938 164.621094 83.789062 164.789062 84.109375 C 164.738281 83.867188 164.578125 83.136719 164.695312 82.808594 C 164.824219 83.410156 165.027344 84.261719 165.183594 84.988281 C 165.347656 85.710938 165.511719 86.304688 165.625 86.386719 C 165.398438 85.484375 165.523438 84.988281 165.628906 84.480469 C 165.730469 83.972656 165.808594 83.449219 165.507812 82.519531 C 165.738281 82.671875 166.191406 82.976562 166.121094 83.980469 C 166.226562 83.578125 166.300781 83.183594 166.351562 82.800781 C 166.378906 82.609375 166.402344 82.417969 166.425781 82.238281 C 166.441406 82.058594 166.457031 81.878906 166.476562 81.710938 C 166.542969 81.027344 166.621094 80.460938 166.875 80.097656 C 166.542969 81.46875 167.207031 82.289062 167.296875 82.570312 C 167.332031 82.265625 167.324219 81.890625 167.296875 81.480469 C 167.273438 81.066406 167.234375 80.628906 167.183594 80.207031 C 167.066406 79.355469 166.890625 78.5625 166.738281 78.171875 C 167.203125 78.035156 167.027344 76.867188 166.875 75.917969 C 166.707031 74.972656 166.570312 74.246094 167.15625 74.972656 C 166.96875 74.871094 166.820312 74.382812 166.710938 73.796875 C 166.59375 73.214844 166.535156 72.539062 166.566406 72.058594 C 166.773438 72.066406 167.027344 72.644531 167.308594 73.34375 C 167.375 73.519531 167.449219 73.699219 167.523438 73.886719 C 167.589844 74.066406 167.664062 74.25 167.730469 74.425781 C 167.871094 74.78125 168.023438 75.101562 168.175781 75.34375 C 168.324219 75.929688 168.390625 76.375 168.441406 76.703125 C 168.492188 77.027344 168.503906 77.238281 168.492188 77.355469 C 168.46875 77.59375 168.34375 77.480469 168.1875 77.253906 C 167.871094 76.804688 167.410156 75.917969 167.324219 76.488281 C 167.40625 77.085938 167.496094 77.683594 167.554688 78.285156 L 167.746094 80.085938 C 167.804688 79.902344 167.988281 80.25 168.136719 80.351562 C 168.277344 80.453125 168.402344 80.308594 168.265625 79.125 C 168.960938 80.171875 169.496094 82.488281 169.101562 84.390625 C 169.234375 84.605469 169.296875 84.367188 169.308594 84.023438 C 169.320312 83.679688 169.296875 83.226562 169.296875 83.011719 C 169.4375 83.21875 169.777344 83.894531 170.085938 84.148438 C 170.390625 84.402344 170.671875 84.222656 170.6875 82.683594 C 170.675781 83.558594 170.1875 81.226562 169.933594 82.800781 C 169.867188 82.199219 169.859375 81.066406 169.957031 80.246094 C 170.050781 79.421875 170.222656 78.898438 170.542969 79.535156 C 170.277344 78.054688 169.578125 75.320312 169.28125 74.140625 C 169.652344 73.726562 169.605469 75.148438 169.882812 75.734375 C 169.746094 75.027344 169.605469 74.324219 169.464844 73.625 L 169 71.53125 L 168.738281 72.816406 C 168.71875 72.421875 168.675781 72.054688 168.617188 71.699219 C 168.558594 71.34375 168.46875 71.011719 168.378906 70.691406 C 168.191406 70.050781 167.960938 69.464844 167.691406 68.90625 C 167.425781 68.347656 167.15625 67.820312 166.875 67.285156 C 166.59375 66.75 166.328125 66.207031 166.09375 65.628906 C 166.492188 65.699219 166.828125 66.234375 167.164062 66.945312 C 167.246094 67.121094 167.332031 67.3125 167.410156 67.503906 C 167.488281 67.699219 167.566406 67.898438 167.648438 68.101562 C 167.808594 68.507812 167.972656 68.917969 168.152344 69.300781 C 168.425781 68.4375 168.253906 68.207031 167.960938 67.871094 C 167.675781 67.53125 167.257812 67.101562 167.011719 65.824219 C 167.054688 65.453125 167.207031 65.324219 167.464844 65.429688 C 167.082031 64.8125 166.6875 64.203125 166.300781 63.601562 C 166.214844 62.996094 166.46875 63.277344 166.582031 63.519531 C 165.691406 61.925781 165.449219 62.035156 165.21875 61.964844 C 164.988281 61.902344 164.78125 61.671875 163.871094 59.503906 C 164.40625 62.292969 165.117188 61.621094 165.726562 63.9375 C 165.6875 64.308594 165.566406 64.34375 165.398438 64.179688 C 165.316406 64.101562 165.21875 63.964844 165.117188 63.808594 C 165.011719 63.644531 164.898438 63.453125 164.78125 63.246094 C 164.542969 62.828125 164.300781 62.347656 164.082031 61.9375 C 163.855469 61.53125 163.652344 61.195312 163.527344 61.058594 C 163.269531 59.949219 163.347656 59.25 163.324219 58.496094 C 163.316406 58.117188 163.265625 57.734375 163.117188 57.289062 C 163.042969 57.066406 162.949219 56.828125 162.820312 56.570312 C 162.757812 56.441406 162.683594 56.304688 162.605469 56.164062 C 162.519531 56.023438 162.429688 55.878906 162.324219 55.726562 C 162.597656 56.164062 162.773438 56.378906 162.902344 56.484375 C 163.03125 56.59375 163.117188 56.605469 163.203125 56.636719 C 163.285156 56.671875 163.371094 56.738281 163.5 56.964844 C 163.5625 57.078125 163.640625 57.230469 163.730469 57.441406 C 163.777344 57.550781 163.828125 57.667969 163.882812 57.804688 C 163.933594 57.9375 163.992188 58.097656 164.050781 58.265625 C 164.949219 59.679688 164.085938 57.335938 164.34375 56.867188 C 163.941406 56.191406 163.804688 57.625 163.128906 55.578125 L 163.265625 55.617188 L 162.226562 54.140625 L 161.15625 52.699219 C 161.042969 52.304688 160.882812 51.921875 160.707031 51.527344 C 160.527344 51.140625 160.339844 50.75 160.121094 50.367188 C 159.679688 49.609375 159.214844 48.859375 158.734375 48.148438 C 158.5 47.792969 158.273438 47.4375 158.058594 47.101562 C 157.839844 46.761719 157.636719 46.429688 157.457031 46.105469 C 157.105469 45.449219 156.832031 44.835938 156.734375 44.25 L 156.324219 45.089844 C 156.1875 44.875 156.046875 44.652344 155.902344 44.417969 C 155.753906 44.1875 155.601562 43.945312 155.445312 43.710938 C 155.128906 43.230469 154.808594 42.730469 154.480469 42.257812 C 154.148438 41.789062 153.828125 41.332031 153.535156 40.925781 C 153.238281 40.527344 152.949219 40.179688 152.71875 39.90625 C 152.996094 39.914062 153.339844 40.1875 153.726562 40.605469 C 154.105469 41.023438 154.53125 41.582031 154.996094 42.136719 C 154.757812 41.75 154.515625 41.367188 154.273438 41 C 154.148438 40.816406 154.03125 40.632812 153.90625 40.453125 C 153.777344 40.28125 153.652344 40.105469 153.523438 39.9375 C 153.265625 39.597656 153.007812 39.265625 152.746094 38.949219 C 152.484375 38.632812 152.210938 38.335938 151.949219 38.046875 C 151.417969 37.46875 150.871094 36.949219 150.347656 36.472656 C 150.210938 36.351562 150.082031 36.242188 149.953125 36.121094 C 149.824219 36.007812 149.6875 35.902344 149.558594 35.800781 C 149.300781 35.59375 149.039062 35.394531 148.789062 35.203125 C 149.125 36.066406 149.339844 36.535156 149.554688 36.988281 C 149.765625 37.445312 150 37.867188 150.34375 38.652344 C 149.785156 38.347656 149.417969 38.046875 149.175781 37.714844 C 148.929688 37.390625 148.792969 37.035156 148.640625 36.667969 C 148.496094 36.296875 148.34375 35.898438 148.089844 35.464844 C 147.835938 35.03125 147.453125 34.578125 146.871094 34.09375 C 147.390625 33.535156 147.960938 34.375 148.03125 33.324219 C 147.433594 33 146.792969 32.449219 146.152344 31.863281 C 145.828125 31.570312 145.496094 31.289062 145.171875 31.023438 C 144.839844 30.757812 144.519531 30.515625 144.191406 30.34375 C 144.191406 29.820312 144.539062 29.679688 145.164062 29.960938 C 145.78125 30.246094 146.6875 30.941406 147.746094 32.101562 C 148.019531 32.648438 148.371094 33.152344 148.769531 33.617188 C 149.175781 34.070312 149.605469 34.515625 150.027344 34.945312 C 150.242188 35.160156 150.449219 35.367188 150.652344 35.582031 C 150.847656 35.796875 151.039062 36.015625 151.210938 36.234375 C 151.558594 36.675781 151.851562 37.125 152.007812 37.613281 C 151.902344 37.199219 151.789062 36.785156 151.664062 36.375 C 152.078125 36.816406 152.421875 37.230469 152.734375 37.625 C 153.050781 38.019531 153.351562 38.386719 153.621094 38.757812 C 153.894531 39.125 154.171875 39.480469 154.472656 39.835938 C 154.769531 40.1875 155.074219 40.5625 155.429688 40.9375 L 155.289062 40.9375 C 155.6875 41.078125 156.09375 41.226562 156.488281 41.382812 C 156.289062 41.066406 156.078125 40.757812 155.875 40.441406 C 156.070312 40.542969 156.328125 40.722656 156.621094 40.9375 C 156.910156 41.15625 157.21875 41.417969 157.523438 41.6875 C 157.824219 41.953125 158.117188 42.226562 158.351562 42.46875 C 158.582031 42.71875 158.769531 42.933594 158.863281 43.085938 C 158.398438 42.339844 157.953125 41.824219 157.546875 41.441406 C 157.34375 41.25 157.152344 41.089844 156.960938 40.957031 C 156.769531 40.820312 156.582031 40.714844 156.402344 40.621094 C 156.042969 40.4375 155.699219 40.3125 155.355469 40.171875 C 155.011719 40.03125 154.667969 39.875 154.296875 39.636719 C 153.445312 38.351562 153.085938 37.289062 152.730469 36.363281 C 152.542969 35.910156 152.359375 35.492188 152.109375 35.109375 C 151.988281 34.917969 151.847656 34.730469 151.675781 34.5625 C 151.507812 34.394531 151.316406 34.230469 151.089844 34.082031 C 151.273438 33.726562 150.460938 32.121094 151.597656 33.007812 C 151.914062 33.316406 152.171875 33.621094 152.390625 33.914062 C 152.613281 34.203125 152.785156 34.476562 152.945312 34.695312 C 153.253906 35.148438 153.480469 35.417969 153.734375 35.332031 C 152.589844 33.886719 153.28125 34.234375 151.441406 32.113281 C 151.011719 32.121094 150.335938 31.828125 149.558594 31.402344 C 149.171875 31.1875 148.742188 30.945312 148.320312 30.679688 C 147.898438 30.417969 147.457031 30.144531 147.019531 29.875 C 146.597656 29.558594 146.179688 29.195312 145.75 28.820312 C 145.324219 28.449219 144.90625 28.050781 144.507812 27.65625 C 144.101562 27.265625 143.710938 26.871094 143.363281 26.5 C 143.019531 26.125 142.691406 25.78125 142.429688 25.460938 C 143.210938 26.128906 144.066406 26.730469 144.738281 27.058594 C 145.40625 27.390625 145.875 27.480469 145.871094 27.113281 C 145.699219 27.066406 145.539062 26.980469 145.378906 26.867188 C 145.214844 26.753906 145.058594 26.621094 144.90625 26.46875 C 144.601562 26.164062 144.320312 25.800781 144.074219 25.488281 C 143.570312 24.863281 143.207031 24.429688 143.105469 24.992188 C 142.882812 24.777344 142.652344 24.550781 142.40625 24.308594 C 142.15625 24.074219 141.894531 23.832031 141.628906 23.578125 C 141.363281 23.328125 141.09375 23.078125 140.832031 22.824219 C 140.570312 22.574219 140.308594 22.332031 140.066406 22.089844 C 139.824219 21.855469 139.601562 21.617188 139.398438 21.398438 C 139.195312 21.183594 139.015625 20.976562 138.875 20.789062 C 138.585938 20.410156 138.445312 20.101562 138.519531 19.894531 C 139.019531 20.199219 139.480469 20.535156 139.921875 20.894531 C 140.355469 21.261719 140.765625 21.644531 141.160156 22.027344 C 141.558594 22.40625 141.933594 22.800781 142.308594 23.15625 C 142.5 23.335938 142.691406 23.511719 142.878906 23.671875 C 143.0625 23.84375 143.257812 24.003906 143.453125 24.15625 C 143.070312 23.773438 142.820312 23.261719 143.1875 23.335938 C 143.875 24.015625 144.574219 24.691406 145.238281 25.398438 C 144.597656 24.480469 144.375 24.066406 144.074219 23.632812 C 143.921875 23.421875 143.742188 23.199219 143.464844 22.917969 C 143.183594 22.644531 142.804688 22.308594 142.265625 21.859375 C 142.355469 22.027344 142.527344 22.359375 142.304688 22.21875 C 141.769531 21.765625 141.117188 21.167969 140.558594 20.726562 L 140.972656 20.089844 C 140.039062 19.542969 138.925781 18.453125 137.578125 17.28125 C 137.238281 16.988281 136.886719 16.695312 136.519531 16.402344 C 136.332031 16.253906 136.148438 16.109375 135.960938 15.960938 C 135.769531 15.816406 135.574219 15.675781 135.375 15.539062 C 134.976562 15.257812 134.570312 14.988281 134.148438 14.734375 C 133.71875 14.484375 133.285156 14.253906 132.835938 14.042969 L 133.210938 14.101562 C 132.898438 13.871094 132.605469 13.6875 132.328125 13.539062 C 132.046875 13.394531 131.789062 13.285156 131.535156 13.203125 C 131.03125 13.03125 130.574219 12.949219 130.101562 12.890625 C 129.628906 12.828125 129.144531 12.773438 128.597656 12.636719 C 128.324219 12.570312 128.03125 12.488281 127.714844 12.375 C 127.394531 12.261719 127.054688 12.121094 126.679688 11.933594 C 127.691406 12.09375 127.460938 11.601562 127.484375 11.207031 C 126.660156 10.960938 126.121094 10.617188 125.609375 10.195312 C 125.101562 9.769531 124.609375 9.296875 123.894531 8.832031 C 124.679688 9.46875 124.289062 9.496094 123.855469 9.476562 C 123.421875 9.460938 122.945312 9.386719 123.523438 9.8125 C 123.398438 10.171875 122.570312 9.960938 121.570312 9.601562 C 121.320312 9.507812 121.0625 9.40625 120.796875 9.292969 C 120.539062 9.179688 120.269531 9.074219 120.007812 8.960938 C 119.492188 8.734375 119 8.5 118.605469 8.3125 C 118.460938 7.992188 118.714844 7.917969 119.140625 7.980469 C 119.570312 8.046875 120.175781 8.238281 120.742188 8.40625 C 121.863281 8.761719 122.800781 9.0625 121.800781 8.035156 C 121.601562 7.933594 121.421875 7.84375 121.253906 7.777344 C 121.085938 7.710938 120.933594 7.660156 120.804688 7.625 C 120.539062 7.550781 120.339844 7.539062 120.226562 7.574219 C 120.007812 7.640625 120.117188 7.890625 120.652344 8.222656 C 120.15625 7.972656 119.59375 7.699219 119.011719 7.410156 C 118.421875 7.128906 117.8125 6.835938 117.21875 6.53125 C 116.625 6.246094 116.054688 5.945312 115.546875 5.648438 C 115.039062 5.359375 114.59375 5.078125 114.261719 4.804688 C 113.917969 4.78125 113.605469 4.746094 113.3125 4.714844 C 113.019531 4.683594 112.746094 4.644531 112.5 4.605469 C 112 4.53125 111.570312 4.4375 111.171875 4.375 C 110.765625 4.3125 110.394531 4.269531 110 4.261719 C 109.605469 4.261719 109.199219 4.296875 108.730469 4.421875 C 109.074219 4.5 109.34375 4.527344 109.585938 4.53125 C 109.828125 4.53125 110.042969 4.515625 110.265625 4.515625 C 110.703125 4.515625 111.175781 4.5625 111.960938 5.015625 C 111.273438 5.039062 110.585938 5.085938 109.902344 5.128906 C 109.597656 5.046875 109.300781 4.957031 109.019531 4.855469 C 108.730469 4.761719 108.457031 4.667969 108.183594 4.566406 C 107.644531 4.371094 107.136719 4.136719 106.648438 3.945312 C 106.15625 3.742188 105.695312 3.542969 105.246094 3.359375 C 104.792969 3.179688 104.359375 3.035156 103.933594 2.921875 C 104.558594 2.949219 105.1875 2.972656 105.8125 3.023438 L 105.699219 3.113281 C 106.078125 3.046875 106.84375 3.191406 107.492188 3.300781 C 108.140625 3.410156 108.675781 3.460938 108.617188 3.167969 C 108.167969 3.21875 107.757812 3.199219 107.367188 3.136719 C 106.972656 3.078125 106.589844 2.984375 106.191406 2.875 C 105.792969 2.773438 105.386719 2.644531 104.921875 2.566406 C 104.46875 2.480469 103.964844 2.425781 103.402344 2.421875 L 103.511719 2.332031 C 103.019531 2.289062 102.546875 2.246094 102.101562 2.167969 C 101.652344 2.09375 101.222656 1.992188 100.804688 1.894531 C 100.390625 1.800781 99.988281 1.695312 99.601562 1.582031 C 99.210938 1.46875 98.835938 1.355469 98.46875 1.265625 C 98.101562 1.167969 97.742188 1.085938 97.390625 1.019531 C 97.042969 0.949219 96.699219 0.898438 96.355469 0.886719 C 95.675781 0.859375 95.019531 0.9375 94.375 1.21875 C 95.082031 1.265625 96.421875 1.964844 95.957031 2.179688 C 95.746094 2.070312 95.445312 1.980469 95.105469 1.894531 C 94.765625 1.8125 94.394531 1.746094 94.050781 1.683594 C 93.371094 1.558594 92.808594 1.433594 92.863281 1.238281 L 93.667969 1.175781 C 93.121094 1.101562 92.625 1.023438 92.183594 0.976562 C 91.738281 0.925781 91.34375 0.886719 90.988281 0.859375 C 90.285156 0.796875 89.75 0.796875 89.347656 0.847656 C 88.722656 1.316406 89.324219 1.710938 87.742188 1.9375 C 85.828125 1.753906 86.210938 1.472656 86.761719 1.179688 C 87.316406 0.886719 88.03125 0.582031 86.707031 0.359375 L 85.800781 0.476562 L 84.894531 0.617188 C 84.289062 0.714844 83.6875 0.796875 83.089844 0.910156 L 82.273438 0.492188 C 79.558594 0.386719 77.175781 0.855469 74.808594 1.46875 C 72.4375 2.09375 70.078125 2.867188 67.296875 3.480469 C 67.234375 3.300781 67.429688 3.089844 67.792969 2.871094 C 67.972656 2.765625 68.191406 2.652344 68.4375 2.539062 C 68.6875 2.425781 68.960938 2.332031 69.25 2.222656 C 69.539062 2.121094 69.835938 2.027344 70.140625 1.929688 C 70.4375 1.835938 70.738281 1.75 71.023438 1.683594 C 71.597656 1.535156 72.113281 1.421875 72.460938 1.355469 C 71.53125 1.167969 70.457031 1.402344 69.328125 1.714844 C 69.046875 1.789062 68.761719 1.867188 68.46875 1.945312 C 68.179688 2.03125 67.886719 2.109375 67.589844 2.179688 C 66.996094 2.320312 66.394531 2.410156 65.78125 2.441406 C 65.226562 2.550781 64.726562 2.695312 64.289062 2.859375 C 63.847656 3.035156 63.476562 3.226562 63.1875 3.40625 C 62.613281 3.777344 62.367188 4.128906 62.597656 4.285156 C 60.0625 5.316406 60.605469 4.410156 60.230469 4.386719 C 60.078125 4.652344 59.757812 4.898438 59.332031 5.136719 C 59.117188 5.253906 58.875 5.367188 58.613281 5.480469 C 58.355469 5.589844 58.078125 5.714844 57.785156 5.828125 C 56.625 6.277344 55.304688 6.757812 54.316406 7.242188 L 54.050781 6.847656 L 52.570312 7.765625 L 51.117188 8.71875 C 51.941406 8.40625 51.386719 9.105469 51.511719 9.371094 C 51.242188 9.472656 50.972656 9.578125 50.699219 9.691406 C 51.140625 9.660156 51.574219 9.585938 52.003906 9.472656 C 52.429688 9.359375 52.847656 9.203125 53.265625 9.023438 C 54.101562 8.683594 54.917969 8.214844 55.765625 7.792969 C 57.4375 6.925781 59.199219 6.15625 61.03125 6.335938 C 60.097656 6.820312 61.488281 6.628906 60.558594 7.117188 C 59.730469 7.335938 59.542969 7.332031 59.402344 7.1875 C 59.21875 7.445312 58.828125 7.773438 58.699219 7.953125 C 58.570312 8.136719 58.699219 8.164062 59.542969 7.867188 C 59.65625 8.339844 58.855469 8.820312 57.753906 9.316406 C 57.207031 9.574219 56.585938 9.84375 55.960938 10.125 C 55.34375 10.414062 54.734375 10.71875 54.203125 11.027344 C 53.699219 11.066406 53.535156 11 53.589844 10.835938 C 53.617188 10.757812 53.703125 10.65625 53.820312 10.539062 C 53.945312 10.425781 54.101562 10.300781 54.289062 10.164062 C 54.65625 9.902344 55.113281 9.601562 55.527344 9.320312 C 55.945312 9.050781 56.324219 8.792969 56.523438 8.589844 C 56.097656 8.792969 55.738281 9.054688 55.320312 9.308594 C 54.902344 9.570312 54.429688 9.8125 53.75 9.957031 L 53.777344 9.152344 C 53.394531 9.359375 53.105469 9.535156 52.878906 9.6875 C 52.660156 9.832031 52.503906 9.953125 52.402344 10.046875 C 52.199219 10.234375 52.203125 10.328125 52.289062 10.402344 C 52.457031 10.542969 52.949219 10.59375 52.738281 11.074219 C 52.621094 11.382812 52.390625 11.609375 52.09375 11.78125 C 51.800781 11.960938 51.4375 12.097656 51.074219 12.203125 C 50.328125 12.414062 49.546875 12.554688 49.140625 12.789062 L 49.972656 12.175781 C 49.347656 12.402344 48.871094 12.628906 48.464844 12.859375 C 48.066406 13.089844 47.742188 13.34375 47.4375 13.585938 C 47.136719 13.832031 46.832031 14.074219 46.488281 14.339844 C 46.136719 14.597656 45.738281 14.867188 45.214844 15.140625 C 44.792969 15.152344 44.378906 15.179688 43.957031 15.195312 C 44.328125 15.082031 44.640625 14.953125 44.921875 14.824219 C 45.203125 14.695312 45.441406 14.554688 45.648438 14.402344 C 46.066406 14.109375 46.359375 13.769531 46.621094 13.464844 C 46.886719 13.15625 47.105469 12.859375 47.371094 12.605469 C 47.636719 12.351562 47.941406 12.144531 48.375 12.042969 C 47.84375 12.203125 47.457031 12.316406 47.167969 12.363281 C 46.886719 12.40625 46.710938 12.394531 46.628906 12.339844 C 46.460938 12.222656 46.628906 11.917969 46.976562 11.527344 C 47.316406 11.132812 47.832031 10.679688 48.328125 10.234375 C 48.578125 10.007812 48.8125 9.792969 49.027344 9.601562 C 49.242188 9.410156 49.421875 9.234375 49.546875 9.089844 C 49.332031 9.207031 49.125 9.320312 48.910156 9.425781 C 48.703125 9.539062 48.5 9.648438 48.296875 9.75 C 47.890625 9.957031 47.496094 10.136719 47.117188 10.296875 C 46.367188 10.617188 45.691406 10.839844 45.125 10.914062 C 44.617188 11.460938 44.035156 11.90625 43.410156 12.289062 C 42.796875 12.683594 42.144531 13.023438 41.496094 13.371094 C 40.859375 13.730469 40.21875 14.089844 39.644531 14.519531 C 39.074219 14.960938 38.554688 15.449219 38.15625 16.070312 C 36.847656 16.808594 38.949219 14.898438 37.632812 15.777344 C 35.183594 17.347656 32.78125 19.335938 30.726562 21.652344 C 30.113281 22.152344 29.8125 22.308594 29.589844 22.339844 C 29.367188 22.367188 29.226562 22.277344 28.957031 22.308594 C 28.195312 22.902344 27.539062 23.5 26.929688 24.074219 C 26.320312 24.648438 25.792969 25.226562 25.289062 25.78125 C 24.800781 26.347656 24.351562 26.902344 23.917969 27.453125 C 23.492188 28.015625 23.089844 28.570312 22.683594 29.132812 C 22.289062 29.699219 21.886719 30.269531 21.476562 30.859375 C 21.070312 31.457031 20.636719 32.0625 20.179688 32.699219 C 19.730469 33.339844 19.222656 34 18.695312 34.714844 C 18.429688 35.070312 18.140625 35.433594 17.84375 35.8125 C 17.550781 36.195312 17.246094 36.585938 16.914062 36.988281 L 17.308594 35.761719 C 16.757812 36.441406 16.226562 37.070312 15.851562 37.660156 C 15.464844 38.25 15.207031 38.792969 15.195312 39.308594 C 14.058594 39.875 13.183594 41.558594 12.375 43.332031 C 12.265625 43.550781 12.164062 43.773438 12.058594 43.996094 C 11.957031 44.21875 11.851562 44.441406 11.75 44.660156 C 11.539062 45.101562 11.320312 45.523438 11.089844 45.921875 C 10.863281 46.328125 10.628906 46.699219 10.363281 47.039062 C 10.097656 47.371094 9.816406 47.664062 9.507812 47.90625 C 8.5625 49.507812 8.359375 50.492188 8.234375 51.386719 C 8.183594 51.839844 8.15625 52.273438 8.078125 52.761719 C 8.035156 53.011719 7.984375 53.261719 7.917969 53.550781 C 7.855469 53.835938 7.773438 54.140625 7.660156 54.484375 C 7.390625 54.378906 7.226562 53.351562 6.53125 54.699219 C 4.984375 59.207031 3.789062 63.558594 2.90625 68.089844 C 2.460938 70.355469 2.09375 72.664062 1.824219 75.058594 C 1.554688 77.453125 1.375 79.925781 1.3125 82.519531 C 1.203125 82.429688 1.132812 81.902344 1.109375 81.636719 C 0.859375 85 1.171875 88.355469 1.605469 91.523438 C 2.039062 94.695312 2.605469 97.667969 2.871094 100.4375 C 2.960938 100.6875 3.0625 101.070312 3.203125 101.476562 C 3.339844 101.882812 3.484375 102.320312 3.636719 102.691406 C 3.785156 103.0625 3.929688 103.375 4.066406 103.519531 C 4.199219 103.667969 4.3125 103.660156 4.386719 103.402344 C 4.199219 102.128906 4.808594 101.835938 5.214844 101.84375 C 5.570312 103.003906 5.753906 103.730469 5.800781 104.230469 C 5.851562 104.730469 5.777344 105.003906 5.6875 105.222656 C 5.597656 105.445312 5.484375 105.621094 5.453125 105.941406 C 5.433594 106.101562 5.441406 106.296875 5.480469 106.546875 C 5.519531 106.800781 5.585938 107.109375 5.714844 107.492188 C 5.378906 108.117188 5.078125 107.660156 4.777344 107.070312 C 4.476562 106.476562 4.160156 105.75 3.738281 105.851562 C 4.03125 106.601562 4.308594 107.355469 4.628906 108.09375 L 5.089844 109.203125 C 5.25 109.570312 5.417969 109.9375 5.574219 110.300781 C 5.632812 110.636719 5.703125 110.960938 5.785156 111.289062 C 5.875 111.609375 5.96875 111.929688 6.070312 112.246094 C 6.171875 112.5625 6.285156 112.875 6.390625 113.1875 C 6.503906 113.496094 6.628906 113.800781 6.746094 114.105469 C 6.867188 114.410156 6.976562 114.707031 7.089844 115.007812 C 7.199219 115.304688 7.316406 115.597656 7.417969 115.890625 C 7.625 116.476562 7.785156 117.066406 7.902344 117.648438 C 7.753906 117.148438 7.550781 117.136719 7.351562 117.027344 C 7.148438 116.921875 6.945312 116.71875 6.816406 115.839844 C 6.949219 116.070312 6.949219 115.886719 7.085938 116.109375 C 6.742188 115.167969 6.527344 114.574219 6.335938 114.167969 C 6.144531 113.761719 5.992188 113.535156 5.839844 113.328125 C 5.6875 113.117188 5.535156 112.925781 5.332031 112.578125 C 5.136719 112.230469 4.875 111.722656 4.574219 110.878906 C 4.847656 111.621094 5.1875 112.414062 5.507812 113.242188 C 5.84375 114.066406 6.195312 114.917969 6.539062 115.753906 C 6.894531 116.589844 7.21875 117.421875 7.546875 118.199219 C 7.703125 118.589844 7.851562 118.972656 7.992188 119.339844 C 8.136719 119.699219 8.269531 120.046875 8.386719 120.378906 C 8.570312 119.964844 8.859375 120.453125 9.199219 121.113281 C 9.546875 121.765625 9.941406 122.589844 10.300781 122.839844 L 10.316406 123.027344 C 10.449219 122.964844 10.753906 123.296875 11.054688 123.691406 C 11.207031 123.890625 11.367188 124.109375 11.5 124.300781 C 11.640625 124.492188 11.765625 124.660156 11.84375 124.769531 L 11.417969 125.777344 C 12.085938 126.800781 11.628906 125.273438 12.296875 126.289062 C 12.550781 126.636719 12.933594 127.234375 13.355469 127.9375 C 13.574219 128.289062 13.804688 128.667969 14.03125 129.054688 C 14.253906 129.445312 14.488281 129.84375 14.71875 130.230469 C 14.941406 130.621094 15.15625 131.007812 15.34375 131.375 C 15.535156 131.742188 15.707031 132.078125 15.84375 132.390625 C 16.113281 133.007812 16.238281 133.488281 16.121094 133.703125 C 16.746094 134.542969 17.234375 135.019531 17.738281 135.5 C 18.234375 135.984375 18.710938 136.484375 19.324219 137.367188 C 19.042969 137.367188 18.660156 137.007812 18.519531 137.015625 C 19.828125 138.90625 21.484375 140.878906 23.167969 142.765625 C 24.851562 144.65625 26.574219 146.472656 28 148.152344 C 30.761719 150.425781 33.222656 152.246094 35.363281 153.128906 C 35.164062 153 34.882812 152.785156 34.609375 152.550781 C 34.464844 152.429688 34.324219 152.308594 34.195312 152.183594 C 34.066406 152.058594 33.949219 151.9375 33.847656 151.824219 C 33.445312 151.371094 33.355469 151.074219 34.179688 151.421875 C 34.652344 151.582031 35.164062 151.894531 35.710938 152.273438 C 36.253906 152.65625 36.84375 153.074219 37.476562 153.441406 C 36.921875 153.613281 40.257812 155.894531 37.683594 154.488281 C 37.695312 154.792969 38.03125 155.15625 38.523438 155.550781 C 38.644531 155.648438 38.777344 155.75 38.917969 155.851562 C 39.058594 155.945312 39.210938 156.046875 39.363281 156.144531 C 39.664062 156.339844 39.988281 156.539062 40.308594 156.730469 C 41.582031 157.496094 42.792969 158.171875 42.527344 158.566406 C 42.90625 158.609375 43.957031 159.21875 45.152344 159.804688 C 45.742188 160.109375 46.375 160.394531 46.953125 160.632812 C 47.242188 160.75 47.519531 160.859375 47.777344 160.9375 C 48.035156 161.015625 48.273438 161.074219 48.476562 161.101562 C 48.539062 161.367188 47.996094 161.183594 47.433594 160.953125 C 46.871094 160.722656 46.277344 160.453125 46.210938 160.582031 L 47.523438 161.15625 L 47.964844 161.335938 L 47.832031 161.597656 C 48.628906 162.058594 49.292969 162.363281 49.882812 162.542969 C 50.476562 162.726562 50.976562 162.824219 51.445312 162.875 C 51.910156 162.925781 52.347656 162.941406 52.785156 162.988281 C 53.003906 163.011719 53.222656 163.042969 53.460938 163.089844 C 53.691406 163.132812 53.933594 163.191406 54.191406 163.269531 L 54.074219 163.34375 C 54.546875 163.476562 55.015625 163.617188 55.484375 163.75 C 54.859375 163.78125 54.234375 163.804688 53.597656 163.828125 C 54.148438 164.023438 54.648438 164.152344 55.121094 164.261719 C 55.601562 164.355469 56.058594 164.417969 56.523438 164.484375 C 56.757812 164.519531 56.988281 164.554688 57.230469 164.585938 C 57.472656 164.621094 57.714844 164.65625 57.972656 164.699219 C 58.230469 164.746094 58.492188 164.796875 58.773438 164.859375 C 58.914062 164.886719 59.054688 164.917969 59.199219 164.960938 C 59.347656 164.992188 59.5 165.027344 59.65625 165.070312 L 59.828125 165.386719 C 60.34375 165.460938 60.863281 165.539062 61.382812 165.601562 C 61.117188 165.566406 60.996094 165.652344 61.140625 165.765625 C 61.949219 165.617188 63.121094 165.867188 64.292969 166.070312 C 64.585938 166.121094 64.875 166.175781 65.160156 166.226562 C 65.441406 166.273438 65.722656 166.304688 65.988281 166.332031 C 66.519531 166.382812 66.984375 166.402344 67.351562 166.328125 C 67.835938 166.492188 68.234375 166.839844 68.703125 167.109375 C 69.171875 167.386719 69.707031 167.554688 70.433594 167.375 L 70.011719 168.226562 C 69.589844 168.160156 69.25 168.097656 68.980469 168.035156 C 68.710938 167.96875 68.507812 167.90625 68.347656 167.84375 C 68.027344 167.726562 67.882812 167.617188 67.730469 167.511719 C 67.578125 167.410156 67.417969 167.3125 67.070312 167.21875 C 66.726562 167.109375 66.195312 167 65.300781 166.867188 C 66.445312 167.765625 68.882812 168.613281 71.679688 169.183594 C 72.375 169.324219 73.097656 169.464844 73.824219 169.566406 C 74.191406 169.617188 74.550781 169.675781 74.917969 169.726562 C 75.28125 169.773438 75.648438 169.808594 76.007812 169.855469 C 76.371094 169.894531 76.730469 169.933594 77.085938 169.96875 C 77.441406 170 77.796875 170.023438 78.140625 170.050781 C 78.484375 170.074219 78.828125 170.101562 79.152344 170.125 C 79.484375 170.148438 79.804688 170.160156 80.121094 170.175781 C 80.632812 170.128906 81.1875 170.125 81.761719 170.113281 C 82.335938 170.101562 82.9375 170.109375 83.546875 170.125 C 84.15625 170.125 84.78125 170.136719 85.398438 170.148438 C 85.710938 170.160156 86.019531 170.152344 86.324219 170.148438 C 86.628906 170.148438 86.933594 170.148438 87.230469 170.140625 C 87.527344 170.140625 87.820312 170.136719 88.109375 170.117188 C 88.398438 170.101562 88.679688 170.085938 88.949219 170.066406 C 89.496094 170.023438 90.003906 169.984375 90.464844 169.894531 C 91.386719 169.726562 92.109375 169.492188 92.507812 169.109375 C 92.382812 169.308594 92.253906 169.503906 92.125 169.703125 C 94.402344 169.679688 96.683594 169.574219 98.964844 169.375 C 101.820312 168.8125 104.710938 168.242188 107.390625 167.511719 C 110.066406 166.785156 112.527344 165.894531 114.460938 164.785156 L 115.757812 164.785156 C 115.988281 164.597656 116.246094 164.40625 116.527344 164.210938 C 116.804688 164.011719 117.109375 163.808594 117.421875 163.613281 C 117.738281 163.410156 118.082031 163.21875 118.429688 163.011719 C 118.78125 162.800781 119.140625 162.59375 119.519531 162.386719 C 119.894531 162.183594 120.277344 161.960938 120.667969 161.742188 C 121.054688 161.527344 121.457031 161.308594 121.851562 161.082031 C 122.640625 160.628906 123.457031 160.183594 124.238281 159.703125 C 125.816406 158.773438 127.292969 157.777344 128.480469 156.835938 C 129.066406 156.351562 129.578125 155.882812 129.992188 155.445312 C 130.394531 154.988281 130.699219 154.5625 130.875 154.167969 C 131.460938 153.914062 131.730469 153.835938 131.820312 153.886719 C 131.910156 153.933594 131.808594 154.109375 131.636719 154.335938 C 131.28125 154.769531 130.621094 155.390625 130.605469 155.601562 C 131.015625 155.378906 131.449219 155.035156 131.894531 154.644531 C 132.332031 154.246094 132.777344 153.792969 133.234375 153.371094 C 133.6875 152.9375 134.140625 152.515625 134.609375 152.183594 C 135.078125 151.851562 135.539062 151.585938 136.023438 151.484375 C 136.113281 151.597656 135.628906 152.054688 135.257812 152.410156 C 134.878906 152.757812 134.609375 153 135.144531 152.71875 C 135.855469 152.523438 136.160156 152.109375 136.492188 151.703125 C 136.824219 151.300781 137.15625 150.867188 137.949219 150.617188 C 137.730469 150.617188 137.691406 150.460938 137.785156 150.207031 C 137.832031 150.078125 137.910156 149.925781 138.015625 149.757812 C 138.117188 149.582031 138.25 149.390625 138.394531 149.179688 C 138.6875 148.769531 139.070312 148.320312 139.460938 147.851562 C 139.855469 147.390625 140.277344 146.933594 140.675781 146.535156 C 140.355469 146.796875 140.347656 146.792969 140.175781 146.867188 C 139.910156 146.816406 140.113281 146.535156 140.445312 146.167969 C 140.777344 145.800781 141.257812 145.367188 141.570312 145.03125 C 141.570312 145.03125 141.582031 145.164062 141.4375 145.367188 C 143.429688 143.246094 145.390625 140.960938 147.273438 138.550781 C 147.507812 138.253906 147.746094 137.949219 147.976562 137.644531 C 148.207031 137.335938 148.4375 137.03125 148.667969 136.722656 C 149.136719 136.105469 149.582031 135.476562 150.039062 134.84375 C 150.269531 134.535156 150.484375 134.207031 150.707031 133.894531 C 150.929688 133.574219 151.152344 133.25 151.375 132.9375 C 151.585938 132.609375 151.800781 132.289062 152.019531 131.960938 C 152.234375 131.632812 152.453125 131.3125 152.664062 130.980469 C 154.351562 128.351562 155.9375 125.628906 157.382812 122.871094 C 158.824219 120.105469 160.136719 117.292969 161.328125 114.492188 C 161.1875 115.238281 161.054688 115.992188 160.886719 116.730469 C 160.933594 116.511719 160.996094 116.277344 161.074219 116.035156 C 161.140625 115.789062 161.21875 115.535156 161.308594 115.269531 C 161.484375 114.746094 161.699219 114.207031 161.894531 113.683594 C 162.09375 113.160156 162.300781 112.667969 162.480469 112.242188 C 162.648438 111.8125 162.800781 111.464844 162.902344 111.230469 L 162.863281 111.484375 C 163.09375 111.128906 163.269531 110.804688 163.410156 110.5 C 163.539062 110.195312 163.636719 109.914062 163.699219 109.65625 C 163.828125 109.132812 163.863281 108.6875 163.871094 108.257812 C 163.902344 107.40625 163.929688 106.667969 164.707031 105.558594 L 164.679688 106.066406 C 164.789062 105.589844 164.914062 105.136719 165.042969 104.703125 C 165.164062 104.269531 165.285156 103.859375 165.410156 103.453125 C 165.472656 103.25 165.539062 103.054688 165.601562 102.863281 C 165.664062 102.664062 165.71875 102.472656 165.78125 102.28125 C 165.902344 101.898438 166.019531 101.519531 166.136719 101.144531 C 166.253906 100.765625 166.351562 100.382812 166.445312 100 C 166.542969 99.613281 166.632812 99.21875 166.707031 98.8125 C 166.773438 98.398438 166.828125 97.976562 166.871094 97.539062 C 166.890625 97.320312 166.902344 97.09375 166.921875 96.855469 C 166.929688 96.625 166.929688 96.382812 166.925781 96.140625 C 167.273438 94.648438 167.511719 93.988281 167.769531 93.441406 C 167.894531 93.171875 168.023438 92.925781 168.148438 92.621094 C 168.273438 92.3125 168.394531 91.9375 168.53125 91.414062 C 168.585938 90.519531 168.457031 89.855469 168.328125 89.40625 C 168.191406 88.953125 168.042969 88.71875 167.984375 88.671875 L 167.90625 89.523438 C 167.636719 89.980469 167.546875 89.503906 167.5 88.769531 C 167.457031 88.03125 167.421875 87.015625 167.320312 86.386719 C 166.914062 86.847656 166.402344 86.949219 165.878906 87.371094 C 165.617188 87.578125 165.355469 87.867188 165.105469 88.316406 C 164.847656 88.761719 164.589844 89.371094 164.351562 90.214844 C 164.390625 90.847656 164.304688 91.3125 164.175781 91.695312 C 164.042969 92.082031 163.867188 92.382812 163.664062 92.6875 C 163.46875 93 163.265625 93.3125 163.101562 93.726562 C 163.023438 93.933594 162.953125 94.164062 162.890625 94.429688 C 162.832031 94.695312 162.785156 94.996094 162.761719 95.347656 C 163.214844 96.203125 162.871094 97.183594 162.5 98.257812 C 162.300781 98.792969 162.09375 99.359375 161.972656 99.953125 C 161.84375 100.550781 161.78125 101.175781 161.894531 101.851562 C 161.660156 101.117188 161.433594 101.84375 161.179688 102.449219 C 160.9375 103.0625 160.707031 103.554688 160.550781 102.394531 C 160.351562 102.613281 160.222656 103.058594 160.121094 103.628906 C 160.003906 104.195312 159.914062 104.894531 159.804688 105.617188 C 159.742188 105.976562 159.683594 106.347656 159.609375 106.707031 C 159.539062 107.074219 159.460938 107.429688 159.359375 107.769531 C 159.265625 108.105469 159.15625 108.425781 159.035156 108.714844 C 158.972656 108.859375 158.910156 108.996094 158.84375 109.121094 C 158.769531 109.242188 158.695312 109.363281 158.617188 109.464844 C 158.566406 109.109375 158.378906 109.132812 158.425781 108.65625 C 158.328125 109.34375 158.195312 109.789062 158.070312 110.105469 C 157.941406 110.414062 157.800781 110.59375 157.652344 110.746094 C 157.355469 111.050781 157.039062 111.25 156.703125 112.199219 L 157.441406 112.386719 C 157.398438 113.214844 156.808594 113.242188 156.683594 113.945312 C 156.964844 113.460938 157.722656 112.488281 157.789062 113.175781 C 157.703125 113.65625 157.648438 114.097656 157.570312 114.550781 C 157.484375 114.996094 157.359375 115.445312 157.167969 115.925781 C 156.898438 115.824219 157.046875 115.109375 157.140625 114.628906 C 157.140625 114.628906 156.238281 116.667969 155.839844 116.65625 C 155.863281 116.453125 155.90625 116.238281 155.953125 116.027344 C 155.996094 115.8125 156.046875 115.585938 156.09375 115.367188 C 156.183594 114.925781 156.246094 114.492188 156.179688 114.09375 C 155.53125 115.390625 155.453125 115.410156 155.402344 115.253906 C 155.351562 115.097656 155.320312 114.753906 154.78125 115.28125 C 155.765625 115.269531 154.148438 117.714844 153.65625 119.191406 C 153.269531 119.1875 154.015625 118.160156 153.9375 117.699219 C 153.269531 118.207031 152.84375 118.707031 152.523438 119.21875 C 152.207031 119.738281 152.019531 120.285156 151.828125 120.863281 C 151.648438 121.445312 151.492188 122.074219 151.222656 122.746094 C 151.089844 123.082031 150.9375 123.433594 150.746094 123.792969 C 150.550781 124.152344 150.324219 124.527344 150.050781 124.910156 C 149.992188 124.785156 150.152344 124.339844 150.230469 124.113281 C 150.054688 124.527344 149.847656 124.878906 149.617188 125.191406 C 149.382812 125.5 149.136719 125.765625 148.910156 126.023438 C 148.464844 126.542969 148.066406 126.988281 147.964844 127.613281 C 147.699219 127.945312 147.503906 128.089844 147.335938 128.160156 C 147.164062 128.226562 147.03125 128.210938 146.878906 128.226562 C 146.730469 128.238281 146.566406 128.28125 146.355469 128.453125 C 146.140625 128.621094 145.882812 128.925781 145.496094 129.449219 C 146.09375 129.410156 145.605469 130 145.0625 130.683594 C 144.507812 131.347656 143.898438 132.109375 144.253906 132.433594 L 143.402344 133.03125 C 143.121094 133.230469 142.839844 133.429688 142.546875 133.617188 C 142.1875 134.460938 142.574219 134.636719 142.78125 134.941406 C 142.890625 135.09375 142.945312 135.273438 142.84375 135.59375 C 142.738281 135.910156 142.457031 136.347656 141.894531 137.027344 C 140.675781 138.085938 140.433594 137.746094 140.292969 137.285156 C 140.148438 136.824219 140.097656 136.230469 139.289062 136.726562 C 139.246094 137.035156 139.207031 137.347656 139.15625 137.652344 L 137.816406 138.480469 C 137.859375 138.417969 137.898438 138.347656 137.945312 138.28125 C 137.683594 138.671875 137.222656 139.121094 136.804688 139.457031 C 136.390625 139.796875 136 139.988281 135.90625 139.886719 C 135.882812 139.75 136.050781 139.519531 136.21875 139.289062 C 136.382812 139.054688 136.546875 138.816406 136.519531 138.6875 C 136.429688 138.863281 136.277344 139.042969 136.085938 139.226562 C 135.886719 139.40625 135.652344 139.601562 135.382812 139.792969 C 135.117188 139.984375 134.828125 140.183594 134.519531 140.382812 C 134.210938 140.578125 133.894531 140.78125 133.578125 140.992188 C 133.269531 141.199219 132.953125 141.402344 132.660156 141.617188 C 132.367188 141.832031 132.097656 142.050781 131.855469 142.28125 C 131.371094 142.726562 131.027344 143.210938 130.949219 143.746094 C 130.519531 143.921875 129.941406 144.273438 129.457031 144.535156 C 128.972656 144.789062 128.578125 144.921875 128.539062 144.667969 C 128.46875 144.917969 128.226562 145.183594 127.894531 145.445312 C 127.558594 145.710938 127.113281 145.96875 126.660156 146.234375 C 126.210938 146.503906 125.730469 146.746094 125.332031 147.007812 C 125.128906 147.132812 124.941406 147.261719 124.785156 147.382812 C 124.621094 147.507812 124.488281 147.625 124.390625 147.75 C 124.398438 147.617188 124.117188 147.621094 123.75 147.738281 C 123.5625 147.796875 123.359375 147.886719 123.164062 147.992188 C 122.960938 148.101562 122.761719 148.230469 122.59375 148.382812 C 123.75 147.980469 123.238281 148.574219 122.710938 149.300781 C 122.144531 149.378906 121.25 149.851562 120.402344 150.257812 C 119.546875 150.640625 118.746094 150.972656 118.363281 150.714844 C 117.085938 151.824219 117.863281 152.058594 117.777344 152.722656 C 117.484375 152.734375 117.074219 152.832031 116.628906 152.964844 C 116.410156 153.035156 116.171875 153.109375 115.941406 153.175781 C 115.707031 153.242188 115.472656 153.304688 115.25 153.367188 C 114.804688 153.480469 114.402344 153.5625 114.121094 153.546875 C 113.839844 153.523438 113.6875 153.417969 113.738281 153.152344 C 114.179688 153.035156 114.871094 152.796875 115.390625 152.554688 C 115.90625 152.3125 116.230469 152.03125 115.929688 151.839844 C 115.722656 151.890625 115.554688 151.941406 115.417969 151.988281 C 115.28125 152.027344 115.179688 152.066406 115.109375 152.105469 C 114.957031 152.183594 114.894531 152.257812 114.847656 152.335938 C 114.757812 152.5 114.726562 152.695312 114.09375 153.023438 C 114.128906 152.835938 112.996094 152.882812 113.148438 152.539062 C 112.78125 152.734375 112.335938 152.957031 111.824219 153.140625 C 111.316406 153.320312 110.757812 153.5 110.179688 153.632812 C 111.113281 153.5 110.890625 153.742188 110.578125 154.03125 C 110.265625 154.300781 109.859375 154.601562 110.445312 154.578125 C 110.933594 154.179688 111.40625 153.75 111.886719 153.34375 C 112.878906 152.925781 113.023438 152.988281 113.035156 153.160156 C 113.046875 153.320312 112.90625 153.585938 113.332031 153.53125 C 112.898438 153.726562 112.539062 153.925781 112.222656 154.085938 C 111.910156 154.25 111.648438 154.410156 111.425781 154.554688 C 111.199219 154.703125 111.011719 154.847656 110.84375 154.984375 C 110.675781 155.117188 110.523438 155.25 110.371094 155.382812 C 110.074219 155.648438 109.78125 155.925781 109.351562 156.226562 C 109.136719 156.375 108.890625 156.53125 108.585938 156.695312 C 108.285156 156.859375 107.9375 157.050781 107.507812 157.226562 C 107.15625 157.246094 106.671875 157.289062 106.230469 157.332031 C 105.785156 157.378906 105.378906 157.410156 105.195312 157.449219 C 106.359375 157.089844 105.898438 156.359375 105.199219 156.386719 C 104.761719 156.683594 104.316406 156.871094 103.871094 156.972656 C 103.417969 157.066406 102.976562 157.09375 102.535156 157.089844 C 102.097656 157.089844 101.65625 157.035156 101.234375 157.011719 C 100.804688 156.984375 100.394531 156.976562 99.984375 157.011719 C 100.34375 156.996094 100.570312 157.011719 100.703125 157.066406 C 100.839844 157.125 100.886719 157.207031 100.863281 157.304688 C 100.828125 157.496094 100.550781 157.753906 100.316406 157.894531 C 99.488281 158.175781 98.988281 158.316406 98.675781 158.363281 C 98.367188 158.402344 98.25 158.355469 98.179688 158.273438 C 98.058594 158.105469 98.152344 157.789062 97.382812 157.726562 C 94.773438 158.1875 92.585938 158.160156 90.554688 158.109375 C 89.539062 158.09375 88.558594 158.042969 87.570312 158.054688 C 87.074219 158.054688 86.578125 158.058594 86.070312 158.09375 C 85.5625 158.125 85.050781 158.148438 84.519531 158.214844 C 85.1875 158.476562 85.855469 158.746094 86.53125 158.984375 L 87.191406 158.261719 C 87.585938 158.398438 87.765625 158.558594 87.804688 158.746094 C 87.84375 158.925781 87.738281 159.132812 87.546875 159.332031 C 87.175781 159.726562 86.476562 160.113281 86.019531 160.351562 C 85.789062 160.113281 83.113281 160.210938 84.1875 159.820312 C 83.753906 159.871094 83.328125 159.894531 82.894531 159.933594 C 82.460938 159.96875 82.027344 160.011719 81.59375 160.03125 C 81.683594 160.113281 81.855469 160.175781 82.046875 160.222656 C 82.238281 160.265625 82.449219 160.296875 82.605469 160.328125 C 82.921875 160.390625 83.039062 160.441406 82.421875 160.589844 C 81.996094 160.46875 81.117188 160.304688 80.566406 160.15625 C 80.007812 159.996094 79.777344 159.839844 80.628906 159.679688 C 80.460938 159.667969 80.285156 159.660156 80.105469 159.652344 C 79.929688 159.640625 79.75 159.636719 79.574219 159.636719 C 79.226562 159.636719 78.882812 159.640625 78.59375 159.675781 C 78.308594 159.710938 78.066406 159.75 77.914062 159.816406 C 77.761719 159.882812 77.699219 159.96875 77.761719 160.082031 C 76.65625 159.972656 76.742188 159.753906 77.226562 159.539062 C 77.46875 159.433594 77.808594 159.328125 78.148438 159.230469 C 78.492188 159.140625 78.835938 159.050781 79.085938 159 C 78.222656 158.910156 77.867188 158.691406 77.796875 158.492188 C 77.722656 158.296875 77.929688 158.113281 78.195312 158.042969 C 77.40625 157.980469 76.613281 157.929688 75.824219 157.839844 C 76.363281 157.710938 76.398438 157.433594 76.933594 157.292969 C 76.183594 157.066406 75.507812 157.09375 74.867188 157.101562 C 74.222656 157.085938 73.609375 157.039062 73.011719 156.628906 L 72.320312 157.113281 C 71.285156 156.796875 70.546875 156.527344 69.953125 156.316406 C 69.65625 156.21875 69.398438 156.117188 69.160156 156.027344 C 68.921875 155.933594 68.699219 155.855469 68.484375 155.777344 C 68.265625 155.703125 68.050781 155.632812 67.8125 155.550781 C 67.582031 155.472656 67.335938 155.390625 67.058594 155.296875 C 66.777344 155.214844 66.46875 155.113281 66.105469 155.003906 C 65.746094 154.894531 65.339844 154.757812 64.867188 154.605469 L 65.375 155.226562 C 64.980469 155.214844 64.660156 155.1875 64.382812 155.140625 C 64.109375 155.089844 63.886719 155.023438 63.691406 154.949219 C 63.300781 154.796875 63.039062 154.605469 62.75 154.386719 C 62.179688 153.929688 61.511719 153.40625 59.5625 152.824219 C 59.007812 152.671875 58.503906 152.53125 58.050781 152.425781 C 57.605469 152.3125 57.21875 152.21875 56.902344 152.171875 C 56.265625 152.082031 55.894531 152.171875 55.890625 152.554688 C 54.558594 152.230469 54.457031 151.722656 54.042969 151.210938 C 53.765625 151.1875 53.410156 151.140625 53.015625 151.078125 C 52.617188 151.019531 52.1875 150.910156 51.75 150.78125 C 51.527344 150.714844 51.308594 150.640625 51.089844 150.5625 C 50.871094 150.476562 50.660156 150.375 50.457031 150.269531 C 50.054688 150.054688 49.671875 149.804688 49.371094 149.496094 C 50.464844 149.863281 51.332031 150.144531 52.3125 150.523438 C 52.347656 150.132812 51.570312 149.699219 50.640625 149.175781 C 50.40625 149.046875 50.160156 148.917969 49.914062 148.78125 C 49.671875 148.640625 49.429688 148.5 49.191406 148.359375 C 48.953125 148.21875 48.730469 148.070312 48.519531 147.929688 C 48.316406 147.777344 48.125 147.632812 47.96875 147.484375 C 47.675781 147.394531 47.214844 147.261719 46.664062 147.0625 C 46.386719 146.96875 46.085938 146.859375 45.777344 146.746094 C 45.621094 146.691406 45.457031 146.636719 45.292969 146.574219 C 45.128906 146.511719 44.964844 146.449219 44.796875 146.382812 C 44.460938 146.253906 44.117188 146.121094 43.777344 145.988281 C 43.433594 145.859375 43.097656 145.710938 42.765625 145.582031 C 42.433594 145.445312 42.105469 145.316406 41.800781 145.191406 C 41.496094 145.0625 41.210938 144.945312 40.9375 144.84375 C 41.160156 145.378906 41.070312 145.757812 40.675781 145.910156 C 40.476562 145.980469 40.207031 146 39.863281 145.953125 C 39.6875 145.929688 39.496094 145.886719 39.289062 145.824219 C 39.082031 145.761719 38.855469 145.675781 38.613281 145.578125 C 38.871094 145.496094 38.402344 144.984375 37.777344 144.34375 C 37.46875 144.023438 37.113281 143.660156 36.78125 143.316406 C 36.457031 142.96875 36.164062 142.625 35.953125 142.335938 C 36.355469 142.40625 35.941406 141.699219 35.738281 141.199219 C 35.636719 140.945312 35.582031 140.75 35.695312 140.726562 C 35.808594 140.703125 36.070312 140.871094 36.648438 141.3125 C 36.890625 141.671875 36.980469 142.03125 37.136719 142.375 C 37.292969 142.71875 37.535156 143.035156 38.042969 143.324219 C 37.980469 143.125 37.871094 142.878906 37.71875 142.597656 C 37.566406 142.316406 37.375 141.992188 37.160156 141.644531 C 36.945312 141.296875 36.699219 140.929688 36.445312 140.546875 C 36.191406 140.15625 35.921875 139.761719 35.644531 139.367188 C 35.773438 139.335938 36.066406 139.4375 36.414062 139.621094 C 36.589844 139.71875 36.777344 139.835938 36.96875 139.964844 C 37.160156 140.101562 37.355469 140.246094 37.535156 140.40625 C 37.007812 140.203125 37.148438 140.507812 37.085938 140.6875 Z M 37.160156 140.6875 " fill-opacity="1" fill-rule="nonzero"/></g><path fill="#db2b29" d="M 165.308594 66.457031 C 165.292969 66.335938 165.273438 66.230469 165.257812 66.113281 L 165.195312 66.5625 C 165.21875 66.410156 165.257812 66.398438 165.308594 66.457031 Z M 165.308594 66.457031 " fill-opacity="1" fill-rule="nonzero"/><path fill="#db2b29" d="M 13.230469 88.863281 C 13.195312 88.71875 13.082031 88.445312 12.992188 88.445312 C 13.0625 88.632812 13.132812 88.789062 13.230469 88.863281 Z M 13.230469 88.863281 " fill-opacity="1" fill-rule="nonzero"/><path fill="#db2b29" d="M 22.675781 49.476562 C 22.597656 49.484375 22.542969 49.460938 22.480469 49.445312 C 22.503906 49.496094 22.554688 49.515625 22.675781 49.476562 Z M 22.675781 49.476562 " fill-opacity="1" fill-rule="nonzero"/><path fill="#db2b29" d="M 161.042969 70.40625 L 160.742188 69.683594 C 160.796875 69.960938 160.902344 70.066406 161.042969 70.40625 Z M 161.042969 70.40625 " fill-opacity="1" fill-rule="nonzero"/></g></g></g></g><g clip-path="url(#4ac57ae271)"><g transform="matrix(1, 0, 0, 1, 0.000000000000001776, 23)"><g clip-path="url(#4583a9aee8)"><g fill="#000000" fill-opacity="1"><g transform="translate(1.109091, 81.236281)"><g><path d="M 19.6875 0.765625 C 14.65625 0.765625 10.722656 -0.238281 7.890625 -2.25 C 5.066406 -4.257812 3.65625 -6.765625 3.65625 -9.765625 C 3.65625 -13.328125 5.488281 -15.109375 9.15625 -15.109375 C 9.207031 -10.117188 10.132812 -6.351562 11.9375 -3.8125 C 13.75 -1.269531 16.507812 0 20.21875 0 C 23.476562 0 26.113281 -0.9375 28.125 -2.8125 C 30.132812 -4.695312 31.140625 -7.523438 31.140625 -11.296875 C 31.140625 -13.585938 30.71875 -15.441406 29.875 -16.859375 C 29.039062 -18.285156 27.691406 -19.570312 25.828125 -20.71875 C 23.972656 -21.863281 21.546875 -23.125 18.546875 -24.5 C 16.960938 -25.257812 15.34375 -26.082031 13.6875 -26.96875 C 12.039062 -27.863281 10.515625 -28.929688 9.109375 -30.171875 C 7.710938 -31.421875 6.59375 -32.9375 5.75 -34.71875 C 4.914062 -36.5 4.5 -38.660156 4.5 -41.203125 C 4.5 -45.785156 5.960938 -49.269531 8.890625 -51.65625 C 11.816406 -54.050781 15.722656 -55.25 20.609375 -55.25 C 23.554688 -55.25 26.148438 -54.84375 28.390625 -54.03125 C 30.628906 -53.21875 32.367188 -52.148438 33.609375 -50.828125 C 34.859375 -49.503906 35.484375 -48.050781 35.484375 -46.46875 C 35.484375 -45 34.921875 -43.84375 33.796875 -43 C 32.679688 -42.164062 31.234375 -41.75 29.453125 -41.75 C 29.453125 -45.96875 28.765625 -49.144531 27.390625 -51.28125 C 26.015625 -53.414062 23.726562 -54.484375 20.53125 -54.484375 C 17.582031 -54.484375 15.226562 -53.59375 13.46875 -51.8125 C 11.71875 -50.03125 10.84375 -47.410156 10.84375 -43.953125 C 10.84375 -41.460938 11.296875 -39.453125 12.203125 -37.921875 C 13.117188 -36.398438 14.492188 -35.09375 16.328125 -34 C 18.160156 -32.90625 20.503906 -31.695312 23.359375 -30.375 C 25.898438 -29.207031 28.25 -27.984375 30.40625 -26.703125 C 32.570312 -25.429688 34.316406 -23.816406 35.640625 -21.859375 C 36.960938 -19.898438 37.625 -17.367188 37.625 -14.265625 C 37.625 -9.640625 36.054688 -5.976562 32.921875 -3.28125 C 29.796875 -0.582031 25.382812 0.765625 19.6875 0.765625 Z M 19.6875 0.765625 "/></g></g></g><g fill="#000000" fill-opacity="1"><g transform="translate(65.207565, 81.236281)"><g><path d="M 2.90625 0 L 2.90625 -0.765625 L 3.890625 -0.765625 C 8.066406 -0.765625 10.15625 -2.59375 10.15625 -6.25 L 10.15625 -48.53125 C 10.15625 -51.988281 8.066406 -53.71875 3.890625 -53.71875 L 2.90625 -53.71875 L 2.90625 -54.484375 L 41.28125 -54.484375 L 41.75 -41.125 L 40.984375 -41.125 L 40.828125 -43.65625 C 40.578125 -47.46875 39.6875 -50.097656 38.15625 -51.546875 C 36.625 -52.992188 33.925781 -53.71875 30.0625 -53.71875 L 17.859375 -53.71875 L 17.859375 -28.921875 L 37.015625 -28.921875 L 37.015625 -28.15625 L 17.859375 -28.15625 L 17.859375 -0.765625 L 31.96875 -0.765625 C 34.71875 -0.765625 36.894531 -1.066406 38.5 -1.671875 C 40.101562 -2.285156 41.285156 -3.328125 42.046875 -4.796875 C 42.804688 -6.273438 43.265625 -8.289062 43.421875 -10.84375 L 43.578125 -13.359375 L 44.34375 -13.359375 L 43.796875 0 Z M 2.90625 0 "/></g></g></g><g fill="#000000" fill-opacity="1"><g transform="translate(135.334186, 81.236281)"><g><path d="M 2.90625 0 L 2.90625 -0.765625 L 5.109375 -0.765625 C 9.285156 -0.765625 11.375 -2.59375 11.375 -6.25 L 11.375 -48.53125 C 11.375 -51.988281 9.285156 -53.71875 5.109375 -53.71875 L 2.90625 -53.71875 L 2.90625 -54.484375 L 17.78125 -54.484375 L 46.859375 -10.90625 L 46.859375 -48.234375 C 46.859375 -51.890625 44.769531 -53.71875 40.59375 -53.71875 L 38.46875 -53.71875 L 38.46875 -54.484375 L 56.09375 -54.484375 L 56.09375 -53.71875 L 53.875 -53.71875 C 49.707031 -53.71875 47.625 -51.890625 47.625 -48.234375 L 47.625 0 L 45.328125 0 L 12.140625 -49.75 L 12.140625 -6.25 C 12.140625 -2.59375 14.222656 -0.765625 18.390625 -0.765625 L 20.53125 -0.765625 L 20.53125 0 Z M 2.90625 0 "/></g></g></g><g fill="#000000" fill-opacity="1"><g transform="translate(216.143606, 81.236281)"><g><path d="M 2.90625 0 L 2.90625 -0.765625 L 3.890625 -0.765625 C 8.066406 -0.765625 10.15625 -2.59375 10.15625 -6.25 L 10.15625 -48.53125 C 10.15625 -51.988281 8.066406 -53.71875 3.890625 -53.71875 L 2.90625 -53.71875 L 2.90625 -54.484375 L 26.25 -54.484375 C 34.082031 -54.484375 40.1875 -52.117188 44.5625 -47.390625 C 48.9375 -42.660156 51.125 -35.96875 51.125 -27.3125 C 51.125 -21.71875 50.195312 -16.882812 48.34375 -12.8125 C 46.488281 -8.75 43.71875 -5.597656 40.03125 -3.359375 C 36.34375 -1.117188 31.75 0 26.25 0 Z M 17.859375 -0.765625 L 24.5 -0.765625 C 30.851562 -0.765625 35.46875 -2.863281 38.34375 -7.0625 C 41.21875 -11.257812 42.65625 -18.007812 42.65625 -27.3125 C 42.65625 -36.570312 41.21875 -43.285156 38.34375 -47.453125 C 35.46875 -51.628906 30.878906 -53.71875 24.578125 -53.71875 L 17.859375 -53.71875 Z M 17.859375 -0.765625 "/></g></g></g><g fill="#000000" fill-opacity="1"><g transform="translate(294.206034, 81.236281)"><g><path d="M 0 0 L 0 -0.765625 L 2.21875 -0.765625 C 3.84375 -0.765625 5.125 -1.195312 6.0625 -2.0625 C 7.007812 -2.925781 7.863281 -4.476562 8.625 -6.71875 L 25.265625 -54.484375 L 29.15625 -54.484375 L 48.3125 -4.8125 C 48.863281 -3.28125 49.46875 -2.222656 50.125 -1.640625 C 50.789062 -1.054688 51.6875 -0.765625 52.8125 -0.765625 L 53.796875 -0.765625 L 53.796875 0 L 32.8125 0 L 32.8125 -0.765625 L 34.5625 -0.765625 C 36.5 -0.765625 37.898438 -0.992188 38.765625 -1.453125 C 39.628906 -1.910156 40.0625 -2.722656 40.0625 -3.890625 C 40.0625 -4.296875 40.007812 -4.789062 39.90625 -5.375 C 39.8125 -5.957031 39.632812 -6.582031 39.375 -7.25 L 34.71875 -19.765625 L 14.046875 -19.765625 L 9.84375 -7.78125 C 9.382812 -6.457031 9.15625 -5.363281 9.15625 -4.5 C 9.15625 -3.125 9.765625 -2.15625 10.984375 -1.59375 C 12.210938 -1.039062 14.171875 -0.765625 16.859375 -0.765625 L 18.625 -0.765625 L 18.625 0 Z M 14.265625 -20.53125 L 34.421875 -20.53125 L 28.84375 -35.40625 C 26.863281 -40.539062 25.285156 -45.117188 24.109375 -49.140625 C 23.609375 -47.617188 23.164062 -46.269531 22.78125 -45.09375 C 22.394531 -43.925781 21.984375 -42.691406 21.546875 -41.390625 C 21.117188 -40.097656 20.578125 -38.535156 19.921875 -36.703125 Z M 14.265625 -20.53125 "/></g></g></g></g></g></g></g></g></g></svg>